<svg id="Layer_2" data-name="Layer 2" xmlns="http://www.w3.org/2000/svg" xmlns:xlink="http://www.w3.org/1999/xlink" viewBox="0 0 1463.9998 1951.17722">
  <defs>
    <style>
      .cls-1 {
        fill: none;
      }

      .cls-2 {
        fill: #ffe294;
      }

      .cls-16, .cls-3, .cls-30 {
        opacity: 0.2;
      }

      .cls-4 {
        fill: #5588a9;
      }

      .cls-5 {
        fill: #cccbcb;
      }

      .cls-17, .cls-6 {
        opacity: 0.1;
      }

      .cls-7 {
        fill: #e5e5e4;
      }

      .cls-10, .cls-14, .cls-16, .cls-17, .cls-21, .cls-26, .cls-8 {
        fill: #fff;
      }

      .cls-11, .cls-21, .cls-8 {
        opacity: 0.5;
      }

      .cls-9 {
        fill-opacity: 0.1;
        opacity: 0.6;
      }

      .cls-10, .cls-33 {
        opacity: 0.4;
      }

      .cls-11 {
        fill: #8fd2ef;
      }

      .cls-11, .cls-20 {
        fill-opacity: 0.3;
      }

      .cls-12 {
        fill: #4d4e4e;
      }

      .cls-13 {
        fill: #838484;
      }

      .cls-14, .cls-22 {
        opacity: 0.3;
      }

      .cls-15, .cls-30 {
        fill: #1a1a1a;
      }

      .cls-18 {
        fill: #979797;
      }

      .cls-19 {
        fill: #b3b2b3;
      }

      .cls-21, .cls-32 {
        fill-opacity: 0.4;
      }

      .cls-23 {
        fill: #3e657d;
      }

      .cls-24 {
        fill: #bec9d0;
      }

      .cls-25 {
        fill: #193b52;
      }

      .cls-27 {
        clip-path: url(#clip-path);
      }

      .cls-28 {
        fill: #29a9e1;
      }

      .cls-29 {
        fill: #beced8;
      }

      .cls-31 {
        fill: #d96363;
      }

      .cls-34 {
        fill: #b22025;
      }

      .cls-35 {
        fill: #631417;
      }
    </style>
    <clipPath id="clip-path" transform="translate(-138.83939 -88.44342)">
      <path class="cls-1" d="M904.13573,420.21364s-8.12623-26.28979.00734-44.88107,24.40107-36.02066,61.58362-44.15459c35.55312-7.77714,55.77418-2.32378,55.77418-2.32378s30.21087,4.64791,32.53465,40.66857c1.83421,28.42663-.64717,45.34863-.64717,45.34863s-58.63294-11.32571-93.49137-6.67816C925.03821,412.84115,904.13573,420.21364,904.13573,420.21364Z"/>
    </clipPath>
  </defs>
  <title>shark</title>
  <g>
    <path class="cls-2" d="M243.15425,1976.02773s283.10156-68.98163,535.34684-66.23153c355.0377,3.8704,671.35741,68.90161,671.35741,68.90161L1405.24825,88.44342l-965.55371,92.6314Z" transform="translate(-138.83939 -88.44342)"/>
    <g id="_1" data-name="1">
      <ellipse class="cls-3" cx="744.26075" cy="1923.12974" rx="322.5457" ry="28.04748"/>
      <g>
        <path class="cls-4" d="M1064.741,1582.84755l-44.07456,33.39008s-1.33556,26.71157,6.6778,36.72863c8.01372,10.01706,76.79651,51.4205,83.47467,48.0816,6.6778-3.33925,20.70154-36.0612,38.73232-44.07492,18.03042-8.01336,28.04713-12.68783,28.04713-12.68783s-5.34224-30.71895-23.37267-26.71192c-18.03042,4.00668-35.39342,17.36264-35.39342,17.36264Z" transform="translate(-138.83939 -88.44342)"/>
        <path class="cls-5" d="M1098.79848,1417.23413s24.37451,13.0219,43.40678,32.72195a202.82915,202.82915,0,0,1,28.71526,37.39676l-111.52214,92.82359,52.75606,50.75272s47.41347-23.373,126.21367-58.76609c39.07232-17.54959,90.15247-74.79351,90.15247-74.79351s-21.36968-89.4847-74.79317-166.949c-53.42384-77.46429-120.20364-117.69921-120.20364-117.69921s-44.07457,9.516-48.08125,72.28909C1081.43584,1347.78321,1098.79848,1417.23413,1098.79848,1417.23413Z" transform="translate(-138.83939 -88.44342)"/>
        <path class="cls-6" d="M1142.20526,1449.95608c16.62672,17.20994,52.41082,65.50819,60.76943,80.13576,6.45661-4.18734-8.07452-109.59708-63.44055-160.27118-11.3659-10.40249-16.37792-129.31425-30.53165-136.46206a3.04254,3.04254,0,0,1-1.79752-2.50618c-.41025-.17752-.81-.38229-1.22476-.54688-9.78506,10.78653-18.82473,27.86752-20.53769,54.7049-4.00668,62.77277,13.35631,132.22369,13.35631,132.22369S1123.173,1430.256,1142.20526,1449.95608Z" transform="translate(-138.83939 -88.44342)"/>
        <path class="cls-7" d="M1099.95058,1546.42364l-40.5522,33.75279,52.75606,50.75272s18.01645-8.88,50.25721-23.96637C1142.554,1585.8136,1121.82066,1565.51007,1099.95058,1546.42364Z" transform="translate(-138.83939 -88.44342)"/>
        <path class="cls-6" d="M1325.18167,1496.70176c-.84424-1.995-51.32929,37.475-121.5392,69.45093-29.16185,13.28153-103.62689,29.795-112.72247,34.31155l21.23444,30.46491,138.90185-64.77646S1327.44814,1502.06008,1325.18167,1496.70176Z" transform="translate(-138.83939 -88.44342)"/>
        <path class="cls-8" d="M1183.6087,1257.63073c-1.33556,2.00334-11.01855,32.72195-11.01855,32.72195s53.75756,40.73566,89.15063,92.82394c35.39341,52.08794,64.77646,108.1829,64.77646,108.1829s-33.68221-92.99517-60.76939-136.23038c-34.72568-55.42718-81.47136-100.83731-81.47136-100.83731" transform="translate(-138.83939 -88.44342)"/>
      </g>
      <g>
        <g>
          <path class="cls-7" d="M530.50361,901.695s-86.14579,146.24744,0,444.75268,236.3999,400.67812,236.3999,400.67812,8.6815,26.0438,14.69152,50.75238c2.38878,9.81927,12.814,19.13011,16.02709,22.03745,14.02374,12.68818,92.15616-14.3578,138.23406-19.36633,33.55641-3.64746,81.84243,2.87554,107.51512-8.68115,9.57955-4.31244,15.74578-23.57919,16.02708-27.3797.33406-4.50778-4.81529-15.62034-6.67781-28.04748-5.58755-37.2818-13.60651-95.99582-11.35262-100.50325,3.00519-6.01037,70.11871-157.26634,94.15951-259.43921,24.04045-102.17287,28.04751-168.28455,28.04751-168.28455s-10.01709-244.41362-328.5561-332.56275C620.96745,816.41648,530.50361,901.695,530.50361,901.695Z" transform="translate(-138.83939 -88.44342)"/>
          <path class="cls-9" d="M950.32511,1746.78157c-27.36363,1.28664-77.43074,10.76835-102.61806,21.04574-11.767,4.80166-14.22991,5.82168-28.71523-1.33556-18.64232-9.2116-23.47648-46.32636,10.017-72.78983,20.226-15.98061-71.12055-28.71526-157.6-272.46111-34.58307-97.47359-46.38681-212.75642-24.0408-313.8642,21.37562-96.71706,70.69877-164.10314,126.46-245.48326-170.21939-29.07029-225.294,42.47308-225.294,42.47308S446.36116,1033.25087,532.507,1331.75612s241.74252,412.69817,241.74252,412.69817,2.6711,22.37153,14.6915,53.75791c3.61426,9.43734,17.82251,12.11789,21.03561,15.02524,14.02374,12.68818,79.80138-7.67965,125.87925-12.68818,33.55711-3.64746,81.84278,2.87519,107.51547-8.6815,6.118-2.75359,6.65928-4.32328,9.34927-11.35227C1035.35793,1756.47469,986.26543,1745.09132,950.32511,1746.78157Z" transform="translate(-138.83939 -88.44342)"/>
          <path class="cls-10" d="M1148.59758,1284.567c-1.822,36.32013-20.33534,76.67106-29.09721,111.96558-14.8582,59.85075-43.81388,123.37727-66.112,176.29827-15.43652,36.63567-33.149,50.21318-27.72879,89.59686,4.48437,32.58322,23.162,61.9736,27.20743,94.61412-5.03016,5.53828-14.29106,4.68181-20.65507.74781-6.36366-3.93435-18.93687-8.151-24.90147-12.66722-20.47511-15.504-151.243.60314-176.29826,18.03043-8.0518-12.59174-9.56348-40.08536,20.03379-46.07791,30.92021-6.26092,87.30031,12.16821-6.01-78.13242-165.61377-160.27118-105.28533-490.2963-77.46464-476.80685,57.926,28.087,160.38544,41.30175,224.66325,44.8615,50.3914,2.79063,106.8068,2.57083,142.88582,37.86082q-1.79944-7.30209-3.59924-14.60416" transform="translate(-138.83939 -88.44342)"/>
          <path class="cls-11" d="M537.84956,1367.81732s51.7542,162.9423,123.87625,264.11333c71.94627,100.925,109.18473,118.19995,109.18473,118.19995s3.33893,34.39157,10.01674,43.74085c6.67813,9.34928,11.36867,15.31388,11.36867,15.31388s-15.37538-39.35468-11.36867-59.38844c4.007-20.03412,4.007-29.38305,4.007-29.38305l-6.01038,7.67965S719.656,1687.54793,662.7273,1604.21723C616.6494,1536.76965,537.84956,1367.81732,537.84956,1367.81732Z" transform="translate(-138.83939 -88.44342)"/>
        </g>
        <g>
          <g>
            <path class="cls-12" d="M819.99329,1857.312s-20.03377,55.09347-29.54973,90.15248c-9.51628,35.05935-4.007,56.429-4.007,56.429l16.52818-6.51112s-12.18743-7.01187,22.37117-51.58718c18.83344-24.2924,43.20481-49.768,50.84952-58.04659,1.83561-1.98762,4.63253-15.66786-19.46313-31.10439C835.35294,1842.95455,819.99329,1857.312,819.99329,1857.312Z" transform="translate(-138.83939 -88.44342)"/>
            <path class="cls-3" d="M871.45293,1892.82877a218.47174,218.47174,0,0,0-49.27354,37.82518c-10.28368,10.58035-19.88106,21.90956-27.73124,34.4349-2.9346,4.68285-6.84554,10.68554-9.50688,16.97232-.52171,13.978,1.49526,21.83233,1.49526,21.83233l16.52818-6.51112s-12.18708-7.01187,22.37117-51.58718C841.24171,1925.27851,861.05917,1903.9602,871.45293,1892.82877Z" transform="translate(-138.83939 -88.44342)"/>
            <path class="cls-13" d="M780.42651,2007.56647a57.30551,57.30551,0,0,1,17.02892-21.03561c7.03039-5.39326,14.02374,1.16853,14.02374,1.16853l1.5026,13.85671L788.941,2018.585l-4.17372-1.5026Z" transform="translate(-138.83939 -88.44342)"/>
            <path class="cls-14" d="M802.63064,1986.86458c2.20323-1.02282,5.67631,8.68149,6.31719,17.54889l4.03394-2.85737-1.5026-13.85671s-6.99335-6.56214-14.02374-1.16853a57.31,57.31,0,0,0-17.02892,21.03561l.35992.789C785.31518,2001.09414,793.28172,1991.20532,802.63064,1986.86458Z" transform="translate(-138.83939 -88.44342)"/>
            <path class="cls-15" d="M787.689,2015.57984a58.055,58.055,0,0,1,9.26539-11.01855c3.8379-3.36651,8.765-5.17557,10.5178-6.01,4.266-2.03165,19.533,10.01671,19.533,10.01671l9.51631-.50075,4.758,6.51112-10.51781,8.26392-20.28431,2.00334-13.77319-7.26242.75129,6.51112-7.513-.50074Z" transform="translate(-138.83939 -88.44342)"/>
            <path class="cls-14" d="M826.25421,2008.94362c-4.95821,1.53334-9.99539,3.56324-15.06332,4.6804,2.31574-1.272,6.53418-4.752,6.46534-7.39311-.06916-2.64142-4.27051-4.41168-6.0261-6.38637C816.4912,2001.4946,825.89289,2009.47826,826.25421,2008.94362Z" transform="translate(-138.83939 -88.44342)"/>
            <path class="cls-16" d="M827.90637,2012.41007q-7.648,2.31835-15.44841,4.0867c9.37164.17717,19.17554,1.2524,27.7536-2.5254a36.22846,36.22846,0,0,0-4.40295-4.81285A31.901,31.901,0,0,1,827.90637,2012.41007Z" transform="translate(-138.83939 -88.44342)"/>
          </g>
          <g>
            <path class="cls-12" d="M959.73,1849.29864s-14.02374,25.04229-18.03043,67.61426c-4.007,42.572,3.50594,83.1406,3.50594,83.1406l14.69152-9.18224s-8.01371-17.36264,18.03043-61.43721,52.92274-84.14245,54.42533-88.64988c1.5026-4.50778,0-10.5178-26.04414-9.51631C980.26446,1832.26971,959.73,1849.29864,959.73,1849.29864Z" transform="translate(-138.83939 -88.44342)"/>
            <path class="cls-3" d="M958.77039,1981.19386a130.09384,130.09384,0,0,0-12.7102-7.91657,3.55355,3.55355,0,0,1-1.78249-3.10758c.67442-35.63663,14.80509-68.38688,40.95476-92.78061,13.3895-12.4904,28.435-22.73424,44.35691-31.5052a39.354,39.354,0,0,0,2.76337-5.09973c1.5026-4.50778,0-10.5178-26.04414-9.51631-26.04414,1.00185-46.57865,18.03078-46.57865,18.03078s-14.02374,25.04229-18.03043,67.61426c-4.007,42.572,3.50594,83.1406,3.50594,83.1406l14.6912-9.18224S958.51914,1987.86048,958.77039,1981.19386Z" transform="translate(-138.83939 -88.44342)"/>
            <path class="cls-13" d="M942.36731,2008.735l-4.67482-17.19561a25.7241,25.7241,0,0,1,14.02377-12.0204,68.38341,68.38341,0,0,1,20.03409-3.50594l1.83631,13.68968-12.0204,11.68634-16.02708,9.01556Z" transform="translate(-138.83939 -88.44342)"/>
            <path class="cls-14" d="M966.24107,1978.85121c1.967-.101,3.67262,9.683,2.94334,15.13147l4.40225-4.28-1.83631-13.68968a68.38341,68.38341,0,0,0-20.03409,3.50594,25.7241,25.7241,0,0,0-14.02377,12.0204l.08177.30017C945.12232,1986.49766,953.21886,1979.519,966.24107,1978.85121Z" transform="translate(-138.83939 -88.44342)"/>
            <polygon class="cls-15" points="806.867 1920.625 809.621 1926.886 817.885 1927.637 815.882 1920.625 836.667 1929.14 857.703 1926.886 868.221 1918.121 861.459 1909.857 853.195 1915.116 833.412 1901.593 820.223 1911.944 809.621 1916.869 806.867 1920.625"/>
            <polygon class="cls-8" points="828.737 1908.104 833.745 1904.765 851.108 1915.45 834.413 1907.436 828.737 1908.104"/>
            <path class="cls-16" d="M1000.63229,1999.88682l-17.02858,10.35077s9.34893-.33406,13.0219-1.66962,7.67965-2.33706,7.67965-2.33706Z" transform="translate(-138.83939 -88.44342)"/>
          </g>
        </g>
        <g>
          <path class="cls-12" d="M962.73514,1866.32722c53.11144-1.99147,65.86112-7.26207,72.62279-33.05567.13593-1.851-.46965-11.81667-.5591-15.14824-.30681-11.43369-1.04308-21.61917-1.40266-25.36308-2.07358-21.58214-39.1202-36.18175-101.7137-29.10663-62.59386,7.07511-128.12022,33.34429-126.04664,54.92643.31659,3.29453,6.61179,12.38382,11.47772,28.58982-3.88158,11.144,5.74657,32.36411,8.55607,36.18629,8.3247,13.392,26.78843,12.96424,41.90417,7.51262C898.12571,1879.85021,922.66728,1867.82981,962.73514,1866.32722Z" transform="translate(-138.83939 -88.44342)"/>
          <path class="cls-17" d="M972.58484,1843.28826c25.2404-.94628,44.42747,2.29373,54.09159-3.3389,6.31823-3.6824,4.745-32.77471,4.67447-35.39307-.24112-8.98621-178.16285-15.08255-176.53343,1.87964.24915,2.58935-13.93918,38.155,10.25223,45.53383C871.61227,1862.49455,941.09464,1844.46937,972.58484,1843.28826Z" transform="translate(-138.83939 -88.44342)"/>
          <path class="cls-15" d="M949.71289,1807.22741c46.579-3.50593,68.14716-2.58586,85.08594,10.8959.60243-8.20241-.93825-16.52154-1.40266-21.3564-2.07358-21.58213-45.13022-32.67582-107.72408-25.6007-62.5935,7.07512-121.0213,29.63954-118.94775,51.22167.55773,5.80211,4.10942,16.48346,10.61076,25.32814C825.00182,1832.26971,894.83992,1811.35745,949.71289,1807.22741Z" transform="translate(-138.83939 -88.44342)"/>
          <path class="cls-18" d="M1007.26223,1814.99547H952.63529a9.801,9.801,0,0,1-9.61628-8.53892l-3.36651-34.14c-.44379-4.49834,4.82263-8.22128,9.53658-7.90015l51.79021,4.006a9.40951,9.40951,0,0,1,8.24438,7.88058l4.67233,30.32373C1014.4883,1810.8857,1011.33778,1814.99547,1007.26223,1814.99547Z" transform="translate(-138.83939 -88.44342)"/>
          <path class="cls-19" d="M1007.648,1811.72855H955.90882a9.28294,9.28294,0,0,1-9.10816-8.08779l-3.18865-32.33547c-.42037-4.26073,2.90245-7.44867,7.36725-7.14466l50.71813,3.45632a8.91216,8.91216,0,0,1,7.80859,7.46439l4.07972,29.32853C1014.1469,1808.44381,1011.50828,1811.72855,1007.648,1811.72855Z" transform="translate(-138.83939 -88.44342)"/>
          <path class="cls-8" d="M958.9168,1766.58924c-4.14681,2.76652-8.17271,5.68715-12.03787,8.82023l.231,2.3409q6.28053-5.55976,12.57217-11.10906Zm17.29835,5.30206c1.53125-1.28244,3.0887-2.53973,4.63745-3.8075l-2.86509-.195q-15.15348,11.54883-29.47005,24.1362l.57867,5.8713q4.816-4.87523,9.71165-9.66972C964.48688,1782.69146,970.13139,1776.98684,976.21515,1771.8913Zm15.63955-3.0576-1.39427-.095c-7.74429,7.61186-16.83848,14.24144-24.48179,21.69081-5.14548,5.01447-10.20366,10.11421-15.23106,15.244a8.70736,8.70736,0,0,0,1.32788,1.65285C964.76189,1793.8407,977.89211,1780.99877,991.8547,1768.8337Zm11.82576,15.61055c1.3111-.81594,2.65959-1.59764,4.01787-2.3748l-.817-5.87164a8.27008,8.27008,0,0,0-5.85593-6.60967,541.48505,541.48505,0,0,0-42.17955,40.12624h7.28269c5.67317-4.05176,11.37991-8.056,17.15892-11.95471C990.01734,1793.2194,996.78775,1788.734,1003.68046,1784.44425Zm5.11057,5.48237c-7.43714,4.54832-15.19577,8.75837-22.18108,13.51705q-4.55862,3.10513-9.07322,6.27071h8.94847a267.73791,267.73791,0,0,1,22.80692-16.18678Zm1.82128,13.09423-.318-2.28779q-6.62644,4.29708-12.98975,8.98132h7.87709C1008.71275,1809.71438,1011.12529,1806.71024,1010.61231,1803.02085Z" transform="translate(-138.83939 -88.44342)"/>
          <path class="cls-12" d="M888.77643,1773.33659s-1.66928,16.77838.83481,26.04414,7.84669,24.0408,7.84669,24.0408l.75129,3.75613-12.77169,3.25574-2.50409-3.75649s-4.50778-8.598-7.01187-24.124c-2.50441-15.52634-2.25389-24.70858-2.25389-24.70858Z" transform="translate(-138.83939 -88.44342)"/>
          <path class="cls-12" d="M1031.60145,1791.45053s2.62953,8.63991,1.87824,15.40123c-.6688,6.02016-1.252,10.89346-1.252,10.89346l-.75129,4.50743,4.302,1.79158-.29528-3.92s1.671-2.70327,2.75467-12.6466c1.08358-9.943-6.13551-19.28247-6.13551-19.28247Z" transform="translate(-138.83939 -88.44342)"/>
          <path class="cls-12" d="M819.35174,1801.34109s1.31772,14.43748,4.3886,21.61463c3.07123,7.17716,8.89116,18.30893,8.89116,18.30893l1.06439,2.97094-8.258,5.692-2.2633-2.56419s-4.34354-6.1526-8.33243-18.57241a144.0263,144.0263,0,0,1-5.16368-20.1669Z" transform="translate(-138.83939 -88.44342)"/>
          <path class="cls-20" d="M810.65694,1813.71058q6.90843,19.41753,13.8176,38.83575-6.31461-12.13484-12.62915-24.26933a13.238,13.238,0,0,0-3.031-4.30266,18.15836,18.15836,0,0,0-5.03089-2.39087c-5.44743-2.16967-10.21869-6.67326-11.4875-12.39814-1.26917-5.72488,1.76679-12.44288,7.34139-14.261,2.11027-.6884,4.39177-.67373,6.52789-1.27721s4.28589-2.12844,4.53015-4.33446a10.44043,10.44043,0,0,0-.83307-3.98152c-.636-2.16933-.56539-4.81878,1.1231-6.32173,2.88361-2.56629,7.20546.116,10.67191,1.8143,9.879,4.8394,21.57236.60872,31.82354-3.38224,35.14182-13.68129,71.69014-24.32734,109.19277-28.28859,7.1181-.75165,15.107-1.00255,20.51809,3.6831a6.28006,6.28006,0,0,0-6.12324,3.4,204.54507,204.54507,0,0,1,51.01448,10.17117c4.25755,1.432,8.62206,3.10233,11.74082,6.33535,6.29342,6.524,4.65454,18.81457-3.12819,23.46213a9.87572,9.87572,0,0,0,.41758-5.185c-.48363-1.6885-2.2794-3.13308-3.94518-2.57608a33.0678,33.0678,0,0,1-.97561,27.20988,69.76368,69.76368,0,0,0-.34772-17.06772c-.77646-5.38662-2.36571-10.99165-6.36471-14.68313-3.99865-3.69149-11.00562-4.5305-14.66846-.50529,2.422-4.72549-.7499-10.76976-5.39012-13.35107-4.64056-2.58132-10.21938-2.62255-15.52948-2.59809l-36.5878.16878a5.69382,5.69382,0,0,0-3.43395.752c-.9379.69819-4.33691,1.00744-4.66468,2.12949-2.90245,9.9332,1.584,35.91374,3.074,37.40795,1.86636,1.8716,4.77789,2.08615,7.41966,2.18015q28.54164,1.01373,57.10977.72614c-1.44636,3.74356-.25966,8.8377-4.16291,9.7707-19.5463,4.67237-45.63971,5.49915-65.18461.82014a8.2894,8.2894,0,0,1-4.18944-1.95512c-1.2293-1.27965-1.56549-3.1509-1.81359-4.90824a147.90736,147.90736,0,0,1-1.41209-24.13689c.08876-3.78689-1.16888-13.60267-3.529-16.56557-1.98342-2.48977-52.79971,2.965-54.53227,5.10357-1.52915,1.88733-1.92227,4.433-2.11166,6.85462a60.54551,60.54551,0,0,0,13.43144,42.67611c-3.84315,1.47988-7.76911-1.88488-10.22777-5.18884a60.96207,60.96207,0,0,1-11.95855-36.129,167.509,167.509,0,0,0-36.71151,9.495,16.2164,16.2164,0,0,0-5.96565,3.385c-4.20621,4.28938-2.78958,11.33829-1.08675,17.09952a46.344,46.344,0,0,1-4.383-14.03178C815.19792,1803.6785,810.08458,1812.10211,810.65694,1813.71058Z" transform="translate(-138.83939 -88.44342)"/>
        </g>
      </g>
      <g>
        <path class="cls-4" d="M568.56815,1061.96614s-176.29826-126.21332-236.3999-190.322c-60.102-64.10833-102.17287-174.29491-96.16285-180.30494,6.01-6.01037,50.08459-14.02374,60.10165-20.03412,10.01706-6.01-8.01337-114.19292-40.06788-114.19292-32.05417,0-38.06419,62.105-38.06419,62.105l-66.112,22.03711S99.775,833.57994,203.95124,1035.92235c126.95343,246.58225,326.55237,310.52529,326.55237,310.52529s72.122-36.06084,78.13242-128.217C614.64608,1126.07482,568.56815,1061.96614,568.56815,1061.96614Z" transform="translate(-138.83939 -88.44342)"/>
        <path class="cls-5" d="M568.56815,1061.96614s-176.29826-126.21332-236.3999-190.322c-17.72291-18.90437-33.8758-41.81543-47.69267-64.88059q-20.77509,17.94621-42.89765,34.18086c-27.70153,20.271-57.15971,38.89865-88.65931,52.79031a581.27211,581.27211,0,0,0,51.03262,142.18764c126.95308,246.58225,326.55237,310.52529,326.55237,310.52529s72.122-36.06084,78.13242-128.217C614.64608,1126.07482,568.56815,1061.96614,568.56815,1061.96614Z" transform="translate(-138.83939 -88.44342)"/>
        <path class="cls-7" d="M218.95621,980.48957a443.21732,443.21732,0,0,0,51.93312-40.89151A329.11582,329.11582,0,0,0,329.206,868.36743c-16.55474-18.25406-31.69215-39.83865-44.73046-61.60389q-20.77509,17.94621-42.89765,34.18086c-27.70153,20.271-57.15971,38.89865-88.65931,52.79031a584.39581,584.39581,0,0,0,33.33731,104.51412C198.16906,994.31867,209.5912,986.8728,218.95621,980.48957Z" transform="translate(-138.83939 -88.44342)"/>
        <path class="cls-6" d="M227.99168,669.30173c1.96247,6.11172,3.26239,17.74773,7.622,22.81077a1.75909,1.75909,0,0,1,.39172-.77331c6.01-6.01037,50.08459-14.02374,60.10165-20.03412.85368-.51193,1.49876-1.78109,1.95337-3.64675a121.55636,121.55636,0,0,0-40.95581-9.69767C246.65634,657.37114,222.44711,652.03414,227.99168,669.30173Zm20.62259-54.40961c3.11769-1.034,2.57466-10.62823,2.77629-13.567.47175-6.8707.78065-13.96574-.38753-20.79171a83.79,83.79,0,0,0-6.39581-20.39858c-22.10035,12.40933-26.63224,59.08233-26.63224,59.08233l-31.27527,10.42521c15.92156-3.64117,32.06675-6.56983,48.01732-10.76521C239.37575,617.652,244.0401,616.40974,248.61427,614.89212Zm352.29983,521.9245c2.7134,44.35132.43715,75.42076-14.31553,110.46334-6.88817,16.3615-33.056,45.07606-33.056,45.07606s-93.15766-18.03042-211.5477-140.416c-73.73821-76.22658-131.05412-173.85323-162.29409-276.42761-15.49033-50.86175-22.45888-104.26462-18.58114-157.3869a155.00416,155.00416,0,0,1,5.0931-30.22973c2.06029-7.62654,8.113-22.50606.83481-28.91515-5.005-4.40714-11.325-5.3391-18.09892-4.85268-9.36919,46.23271-33.23457,210.41063,55.00262,381.79437,126.95308,246.58225,326.55237,310.52529,326.55237,310.52529s72.122-36.06084,78.13242-128.217A259.48056,259.48056,0,0,0,600.9141,1136.81662Z" transform="translate(-138.83939 -88.44342)"/>
        <path class="cls-21" d="M560.55443,1060.96464S392.26989,935.75282,332.16825,871.64413c-59.0072-62.9405-100.62975-170.28579-96.43891-179.8636-3.25154-7.90154-12.08957-23.42368-10.40877-31.82772,4.007-20.03412,50.75272,12.02039,72.10212-19.988-4.59794-33.8765-19.81571-82.85267-41.38352-82.85267a22.90729,22.90729,0,0,0-8.859,1.76887,15.46656,15.46656,0,0,1,1.62735,1.39182c11.82506,11.77929,9.90314,58.27652,9.90314,58.27652s-40.11086,9.97792-57.23135,12.31358c-8.78632,1.19858-49.61633,10.39131-49.61633,10.39131s-.91134,3.37944-2.24656,9.65783c13.94372-.38124,27.99926-.97773,37.38873,11.37534,9.75882,12.83948,13.31752,29.91279,17.16241,45.24029,11.30754,45.07711,30.13539,89.65173,49.39794,131.84631C290.0467,919.28649,348.672,995.2384,421.661,1045.11542c38.73863,26.47186,85.80369,58.92194,138.89346,84.96608C616.6494,1172.15272,560.55443,1060.96464,560.55443,1060.96464Z" transform="translate(-138.83939 -88.44342)"/>
      </g>
      <g>
        <g>
          <g>
            <path class="cls-4" d="M337.17644,562.12033l92.15615,80.13577,59.0998-26.04414-17.02858,59.10015L590.60526,783.495s38.06453,26.04415,115.19511-68.115c77.13022-94.15951,117.19811-237.40176,107.1814-247.41881-10.01706-10.01706-27.046-27.04564-27.046-27.04564s-110.18623-46.07826-280.47447,15.02524C332.37966,518.04647,337.17644,562.12033,337.17644,562.12033Z" transform="translate(-138.83939 -88.44342)"/>
            <path class="cls-22" d="M358.212,566.12737l73.12389,65.11017,74.12538-31.05267-18.03042,72.122L598.619,768.46977s30.05082,41.06938,107.1814-53.08978c77.13022-94.15951,65.11017-236.40026,65.11017-236.40026S660.724,425.89,498.44944,479.98158C323.999,538.1316,358.212,566.12737,358.212,566.12737Z" transform="translate(-138.83939 -88.44342)"/>
            <path class="cls-8" d="M370.23243,535.0747s113.6782-74.85048,212.35948-91.15432c115.19474-19.03192,168.28452-2.00334,168.28452-2.00334l-19.03227,22.03745s-45.07606-21.03561-162.27452-2.00334C449.54037,481.44294,370.23243,535.0747,370.23243,535.0747Z" transform="translate(-138.83939 -88.44342)"/>
          </g>
          <path class="cls-23" d="M972.26263,413.10638s11.85724-124.78516,120.83228-141.15959S1209.975,359.46553,1209.975,359.46553s-10.72817,58.72241-111.23351,71.709C998.23583,444.16149,972.26263,413.10638,972.26263,413.10638Z" transform="translate(-138.83939 -88.44342)"/>
          <path class="cls-4" d="M1594.30352,374.80352s-194.32864-110.18659-466.78978-72.122C744.49635,356.19127,666.734,553.10512,666.734,553.10512l-10.0167,30.05082s-62.105,62.10534-96.16285,236.40026c-34.0575,174.29492,197.00015,261.77627,363.28135,323.88126s153.59337,61.43721,153.59337,61.43721,105.7127-20.20359,166.2812-84.81023c90.15247-96.16249,92.15581-182.30828,92.15581-182.30828L1231.69,873.64748l58.09831-62.105s66.112,18.03042,118.19995-4.00669c52.08828-22.03745,102.34235-77.856,146.24743-170.28823C1630.36472,476.97639,1594.30352,374.80352,1594.30352,374.80352Z" transform="translate(-138.83939 -88.44342)"/>
          <path class="cls-14" d="M1074.75771,331.39673c54.75937-12.0204,132.079-17.0422,174.96267-16.02708,225.71541,5.34224,314.96912,58.533,316.53571,58.76609,36.3096,5.40409,16.36494-3.029,26.61892-.11811-17.98849-9.75254-206.36515-107.51931-465.36127-71.33616C840.988,342.71091,718.86525,473.005,678.75441,531.068,776.4974,410.87,971.37505,354.09044,1074.75771,331.39673Z" transform="translate(-138.83939 -88.44342)"/>
          <path class="cls-24" d="M1594.8801,377.34884c-117.36409-10.42031-230.3123-10.51571-345.15972,19.49213-154.29819,40.31564-186.79335,47.44562-162.9423,41.4031,0,0-53.42349-34.72529-139.13842-18.0126-45.87767,8.945-98.597,32.70412-120.61668,112.85736-2.95627,10.76031-16.49918,12.65743-25.70236,18.59442-10.616,6.84868-21.43854,13.22492-31.75787,20.56107-29.69719,21.11284-58.65671,44.78218-82.39594,72.56444-13.038,15.25866-38.46325,64.56086-38.46325,64.56086S658.324,726.69382,657.051,727.4c-9.6788,5.3702-38.906,21.347-44.40828,23.039-26.04414,47.07976-30.01867,66.44155-16.02708,211.358,40.82794,118.9841,490.16245,237.73547,490.16245,237.73547s96.36412-14.8617,156.93227-79.468c90.15247-96.16249,92.15581-182.30828,92.15581-182.30828L1231.69,873.64748l58.09831-62.105s66.112,18.03042,118.19995-4.00669c52.08828-22.03745,102.34235-77.856,146.24743-170.28823,69.12455-145.52515,45.75572-243.14376,40.87024-259.87636C1595.03036,377.36422,1594.95563,377.35548,1594.8801,377.34884Z" transform="translate(-138.83939 -88.44342)"/>
          <path class="cls-16" d="M1125.9783,1142.73369c16.35905-3.00833,108.71684-27.67743,161.80662-99.29873,5.62214-7.5846,15.06717-24.18686,21.53635-31.05267-2.59179.58112-17.45594,3.98852-20.02537,4.50883-29.86982,6.04882-51.62667,5.23252-82.49064,1.20557-19.84472,66.00684-72.82547,108.91253-143.72235,128.91345C1084.17789,1147.13839,1105.27675,1146.54014,1125.9783,1142.73369Z" transform="translate(-138.83939 -88.44342)"/>
          <path class="cls-6" d="M1279.15653,1058.65729c-42.07677,28.40531-81.6076,68.26737-130.94124,80.10571-54.08778,12.97926-90.73639,13.69492-144.91153,0-110.38891-27.90491-258.92762-139.89776-350.59314-227.71876-57.50323-55.09138-88.21485-107.12165-86.81359-102.84066,15.86494,48.47263,162.99471,230.76414,203.00982,261.77627,120.20368,93.15766,337.57128,135.22889,337.57128,135.22889s76.66407-20.538,137.23222-85.1443c25.44136-27.13754,43.86036-53.47591,57.19745-77.307Q1290.32028,1051.09155,1279.15653,1058.65729Z" transform="translate(-138.83939 -88.44342)"/>
          <path class="cls-6" d="M614.399,689.888c.91833,22.47007,6.06908,43.78733,15.94007,62.55472C644.11681,778.636,670.451,796.13461,694.49632,812.095a649.93,649.93,0,0,0,73.69386,42.32387c-21.261-22.30443-42.406-44.75038-62.32027-68.26807-11.332-13.38252-22.3883-27.02222-32.75375-41.17246-8.67346-11.84079-17.75227-23.69206-22.32784-37.83321-16.27306-50.29461,7.26032-100.80586,14.94836-151.04735l-9.0194,27.05821s-17.33329,17.34168-38.70609,59.38879c-1.178,6.13373-2.07011,12.38033-2.71028,18.6706C615.04756,670.67259,614.62194,680.27206,614.399,689.888Z" transform="translate(-138.83939 -88.44342)"/>
          <path class="cls-6" d="M592.57226,801.83608c5.9915,11.66886,19.24228,20.65892,30.17068,27.13964,25.21736,14.95465,53.20264,24.07434,79.68917,36.4033-12.02074-14.05414-25.48922-26.77727-38.59254-39.84145-14.88826-14.84422-31.54189-30.69973-40.82058-49.86793-13.479-27.84516-14.6709-57.51649-14.10446-87.45549a206.53163,206.53163,0,0,1,.68563-26.40756q.022-.94926.04051-1.89781a595.79876,595.79876,0,0,0-25.29948,65.94044q.13418,17.66213,1.44423,35.269C586.7394,773.95109,586.56572,790.13752,592.57226,801.83608Z" transform="translate(-138.83939 -88.44342)"/>
          <path class="cls-6" d="M1131.52042,491.00013C1023.275,528.88611,960.26529,551.887,941.86621,591.16966c-16.43,35.07962,11.29531,82.7674,37.88737,106.31724,28.94345,25.63215,64.218,44.423,99.76977,59.17528,38.34339,15.91072,179.00956,41.43244,217.3547,56.53386,24.00725,2.82977,154.16715-116.21793,203.26632-205.9993,70.11835-128.217,64.65625-185.90507,64.65625-185.90507S1331.85948,420.88142,1131.52042,491.00013Z" transform="translate(-138.83939 -88.44342)"/>
          <path class="cls-10" d="M1595.10588,377.37121c-.07552-.007-.15025-.01573-.22578-.02237q-11.574-1.02787-23.207-1.89187-2.60771,23.03739-6.87245,45.8347C1545.414,524.826,1502.57717,621.28234,1434.56979,701.98c-36.6259,43.46025-79.50467,81.78337-130.445,107.636-2.40275,1.21955-4.82508,2.39891-7.2467,3.58,18.39769,3.89207,69.26433,12.04381,111.11016-5.66024,52.08828-22.03745,102.34235-77.856,146.24743-170.28823C1623.36019,491.72242,1599.99136,394.10381,1595.10588,377.37121Z" transform="translate(-138.83939 -88.44342)"/>
          <path class="cls-14" d="M1595.10588,377.37121c-.07552-.007-.15025-.01573-.22578-.02237q-11.574-1.02787-23.207-1.89187-2.60771,23.03739-6.87245,45.8347C1545.414,524.826,1502.57717,621.28234,1434.56979,701.98c-36.6259,43.46025-79.50467,81.78337-130.445,107.636-2.40275,1.21955-4.82508,2.39891-7.2467,3.58,5.32058,1.12555,85.066-17.01286,157.18806-97.14827,75.32013-83.68887,131.05063-174.95711,146.91522-244.41363C1606.57552,447.14292,1596.01093,380.47179,1595.10588,377.37121Z" transform="translate(-138.83939 -88.44342)"/>
          <path class="cls-3" d="M959.6363,605.79654c.57623-.59161.498-.65905,0,0Z" transform="translate(-138.83939 -88.44342)"/>
          <path class="cls-25" d="M1403.08451,419.54726a44.54581,44.54581,0,0,0-45.184,17.38466c-2.31713,3.11316,2.90385,6.10437,5.18954,3.03349a38.41217,38.41217,0,0,1,4.266-4.80061,4.1942,4.1942,0,0,0,3.58491.17752,77.546,77.546,0,0,1,31.09355-6.77915c1.74161-.02236,2.74346-2.3734,1.51238-3.51083C1405.70112,423.88347,1406.08376,420.15354,1403.08451,419.54726Z" transform="translate(-138.83939 -88.44342)"/>
          <path class="cls-25" d="M668.73768,549.09844C666.734,553.10512,650.7069,654.2765,650.7069,676.3136c0,22.03746,3.00519,31.05267,3.00519,31.05267L774.91723,874.64932,638.68685,719.38667S631.675,674.31026,637.685,642.2561s18.03042-73.1239,18.03042-73.1239Z" transform="translate(-138.83939 -88.44342)"/>
          <path class="cls-25" d="M622.65942,633.24088s-8.01334,85.144-7.01187,97.16435c1.00185,12.0204,6.01037,24.0408,6.01037,24.0408l94.15916,123.20848L608.636,766.46643s-10.01706-15.02559-9.01556-43.07307C600.62231,695.34587,622.65942,633.24088,622.65942,633.24088Z" transform="translate(-138.83939 -88.44342)"/>
          <path class="cls-16" d="M651.95932,704.61163s4.975,9.5565,11.35015,16.16232c38.09878,39.47523,69.58825,89.57974,100.5892,134.8431-30.42612-43.9285-48.37407-101.62-58.6948-154.05044-1.8244-9.26821-3.312-18.82365-1.63538-28.11982,1.576-8.73845,5.851-16.72037,10.06668-24.53525,8.83525-16.38,13.38045-35.35184,22.216-51.73185-25.04229,17.02892-70.1187,82.1391-70.1187,82.1391s-2.36466-84.37657,1.00149-126.21367C656.06208,568.34247,651.95932,704.61163,651.95932,704.61163Z" transform="translate(-138.83939 -88.44342)"/>
          <path class="cls-14" d="M702.62817,855.61705c-12.8126-21.87392-33.85974-42.28054-46.67267-64.15446-10.56428-18.03531-20.8885-41.86854-7.90469-58.24821-1.61721.41059-20.38286,8.2094-20.38286,8.2094s-10.01669-72.122-5.00853-102.17287c1.25694-7.54127-9.01521,99.168-3.83965,110.01955C622.65942,764.129,672.19192,821.70316,702.62817,855.61705Z" transform="translate(-138.83939 -88.44342)"/>
          <path class="cls-26" d="M702.893,857.16647c-13.44437-17.70789-27.31646-35.07962-40.41663-53.04854-12.59907-17.28228-23.53306-35.99935-36.46829-53.00207,1.32228-3.32143,8.75383-10.46609,6.89972-10.12259-4.38515.81245-13.55829,6.457-13.08621,7.44238C629.29949,768.23355,704.10838,858.76726,702.893,857.16647Z" transform="translate(-138.83939 -88.44342)"/>
          <path class="cls-26" d="M762.26749,857.66547c-17.9836-29.27122-36.23347-58.36528-53.96128-87.80423-14.27776-23.70918-28.67019-48.13576-49.73131-66.162,15.33-29.68252,60.7883-85.61255,57.6947-83.00467-27.51214,23.18781-48.32131,50.80548-66.13858,82.0451-.867,1.52042-.88932,3.767.46162,4.969,22.07065,19.63471,38.22216,44.05989,55.0047,68.324,18.82331,27.21441,37.13294,54.80168,55.719,82.18837C761.6986,858.78438,762.63685,858.26651,762.26749,857.66547Z" transform="translate(-138.83939 -88.44342)"/>
          <path class="cls-26" d="M1385.76275,434.24927a44.18559,44.18559,0,0,0-18.39559,7.76281c-.84529.607-.07163,2.00579.82923,1.41908a56.69134,56.69134,0,0,1,17.978-7.68769C1387.15912,435.51214,1386.7307,434.07734,1385.76275,434.24927Z" transform="translate(-138.83939 -88.44342)"/>
          <g>
            <path class="cls-4" d="M870.60274,429.109A32.71821,32.71821,0,0,1,837.827,386.45561c14.41546-45.18928,49.66456-111.92436,133.42227-124.5098,128.88482-19.366,138.23407,103.50843,138.23407,103.50843s10.10581,29.86877-24.54155,54.42569c-19.28107,13.66556-65.79578-5.16962-115.69586.50075C923.36509,425.59433,891.92244,428.05474,870.60274,429.109Z" transform="translate(-138.83939 -88.44342)"/>
            <path class="cls-16" d="M960.56476,285.98661c130.68161-22.87192,139.23277,117.99064,139.63742,118.06157,9.69977-17.80748,4.60458-33.25135,4.60458-33.25135s-9.11795-122.87476-134.81654-103.50878C888.30294,279.87385,853.925,346.60857,839.866,391.79785,861.7308,341.41379,891.72571,298.035,960.56476,285.98661Z" transform="translate(-138.83939 -88.44342)"/>
            <path class="cls-26" d="M1074.67451,298.42424c-3.94693-4.91593-19.28278-18.78172-32.87325-23.813-.4186-.15515-.753-.41793-.86032,0-.68176,2.65261,20.21058,11.79257,34.315,38.41888,3.77256,7.12159,5.12385,15.27159,9.45935,21.84,2.169,3.28649,10.35113,6.04113,10.74425,2.3699C1096.66515,325.99648,1081.33939,306.72589,1074.67451,298.42424Z" transform="translate(-138.83939 -88.44342)"/>
          </g>
          <g>
            <path class="cls-25" d="M827.50626,537.078s11.95016-101.98837,117.6992-114.694c105.74869-12.70565,149.25227,21.53636,149.25227,21.53636s-47.83978-54.10106-143.24225-35.5601C809.47583,435.907,827.50626,537.078,827.50626,537.078Z" transform="translate(-138.83939 -88.44342)"/>
            <path class="cls-16" d="M1021.40443,427.93523c6.10717,4.12689,9.15918,11.57346,10.31621,18.853,3.87107,24.35215-12.16545,50.3264-35.67088,57.77612-17.79668,5.64066-36.98477,1.39461-55.6344.54093a152.4724,152.4724,0,0,0-99.03178,31.20118c-4.55283-31.04952,33.8772-121.20025,161.63854-112.632C1009.38857,424.10152,1016.11739,424.3629,1021.40443,427.93523Z" transform="translate(-138.83939 -88.44342)"/>
            <path class="cls-26" d="M912.14945,440.91554c-16.02216,8.012-30.19654,21.17679-40.44772,34.96151-.48887.6573.46825,1.58681,1.12415,1.12415,9.54743-6.72813,18.53187-13.58589,28.1558-19.70075a3.75941,3.75941,0,0,0,4.54168,1.641q6.39267-2.473,12.84159-4.77021a4.56224,4.56224,0,0,0,5.41108,2.44958,8.83972,8.83972,0,0,1,7.8673.31869c2.83431,1.06614,5.90869-2.79448,4.0563-5.27655a16.91251,16.91251,0,0,0-2.35173-2.54987q.56033-.47018,1.11961-.94139c2.20392-1.84889,1.55291-4.9956-.29-6.71345a164.28592,164.28592,0,0,1,37.26153-7.80545C976.261,433.21248,939.98587,425.14949,912.14945,440.91554Z" transform="translate(-138.83939 -88.44342)"/>
            <path class="cls-26" d="M928.08568,461.12193a31.76392,31.76392,0,0,0-4.2174,2.54882c-1.44843,1.16119-2.82068,2.39052-4.19713,3.63558-1.402,1.26846.38089,3.30535,1.93451,2.50758,1.483-.76143,2.96849-1.50609,4.40469-2.35418a35.43089,35.43089,0,0,0,4.35161-3.38817C932.04763,462.679,929.88774,460.09283,928.08568,461.12193Z" transform="translate(-138.83939 -88.44342)"/>
          </g>
          <g>
            <path class="cls-25" d="M898.45942,428.89514S883.7679,396.841,893.11718,375.4713c9.34928-21.36933,28.04751-41.40344,70.78648-50.75237,40.86566-8.93939,64.10833-2.67147,64.10833-2.67147s34.72564,5.34259,37.39676,46.746c2.10783,32.67442-4.00665,53.4235-4.00665,53.4235s-54.75943-20.03377-94.82731-14.69153C926.50691,412.86806,898.45942,428.89514,898.45942,428.89514Z" transform="translate(-138.83939 -88.44342)"/>
            <path class="cls-26" d="M904.13573,420.21364s-8.12623-26.28979.00734-44.88107,24.40107-36.02066,61.58362-44.15459c35.55312-7.77714,55.77418-2.32378,55.77418-2.32378s30.21087,4.64791,32.53465,40.66857c1.83421,28.42663-.64717,45.34863-.64717,45.34863s-58.63294-11.32571-93.49137-6.67816C925.03821,412.84115,904.13573,420.21364,904.13573,420.21364Z" transform="translate(-138.83939 -88.44342)"/>
            <path class="cls-7" d="M1007.5184,397.11284a262.92793,262.92793,0,0,0-65.68015,5.56379,17.099,17.099,0,0,1-17.94935-6.76552,15.72109,15.72109,0,0,1-2.48659-3.75858l-.01121-.02166c-.1569-.32393-.333-.63948-.4672-.9718-6.9965-14.91761,5.27972-34.96046,16.17178-45.42759a72.44148,72.44148,0,0,1,14.19913-10.59888c-27.13964,9.097-40.15874,24.21622-47.15174,40.2-8.13392,18.59128-.00734,44.88107-.00734,44.88107s20.90248-7.37249,55.76093-12.0204c34.85875-4.64755,93.49169,6.67816,93.49169,6.67816s.52591-3.64012.91484-10.30884C1038.81285,401.67863,1023.55943,397.75721,1007.5184,397.11284Z" transform="translate(-138.83939 -88.44342)"/>
            <g class="cls-27">
              <g>
                <path class="cls-28" d="M1006.64267,398.96033c11.18558-11.63566,9.18224-26.6609,7.97143-33.63923a36.40864,36.40864,0,1,0-7.52345,33.61617C1006.94074,398.94111,1006.53818,399.06936,1006.64267,398.96033Z" transform="translate(-138.83939 -88.44342)"/>
                <path class="cls-15" d="M995.01085,388.79266c6.41153-6.66976,5.26327-15.28207,4.56928-19.28177a20.86894,20.86894,0,1,0-4.31245,19.2685C995.18172,388.78148,994.95074,388.85486,995.01085,388.79266Z" transform="translate(-138.83939 -88.44342)"/>
                <path class="cls-26" d="M1021.33419,370.79683l-40.06788,3.50594,30.38489,26.21082s13.356,3.33926,18.36417-10.35077C1035.02386,376.47314,1021.33419,370.79683,1021.33419,370.79683Z" transform="translate(-138.83939 -88.44342)"/>
              </g>
            </g>
          </g>
          <g>
            <path class="cls-20" d="M909.19,617.81s-73.4611,261.04943,82.88027,376.59189c139.759,103.28724,300.6169,59.40556,300.6169,59.40556s17.15543-24.4465,26.65112-51.44181c10.61845-30.18746,12.879-63.5363-4.54412-68.9397-32.63773-10.12154-248.74388-55.24547-331.35194-140.31394C902.50245,709.76134,909.19,617.81,909.19,617.81Z" transform="translate(-138.83939 -88.44342)"/>
            <path class="cls-29" d="M911.07285,610.44409s-66.53906,242.8394,90.63607,358.2295c140.52849,103.16948,302.43893,58.17309,302.43893,58.17309s63.1047-14.29735,73.78954-54.36523c10.97732-41.16408-16.205-78.02655-49.41681-88.14914-32.84146-10.00937-252.29522-32.98088-335.3408-118.11818-81.3623-83.41107-67.09147-166.95632-67.09147-166.95632Z" transform="translate(-138.83939 -88.44342)"/>
            <path class="cls-30" d="M947.27554,587.35622c20.76061,44.34293,49.98745,83.68293,84.64005,118.14544,34.18575,33.9981,72.31043,65.68745,114.01265,90.07035,22.18348,12.97053,45.35243,24.37731,69.90586,32.13524,21.19949,6.69842,43.151,10.98361,65.01093,14.93892,19.15527,3.4661,67.17292-27.67637,88.41121-27.097l30.05082-6.01s-23.37337,4.00668-203.01018-48.749C1056.74368,719.806,958.56107,558.44771,958.56107,558.44771l20.03415-26.71192s-60.10133-.66778-80.80358,10.68484c-20.70154,11.35262-28.04748,56.09462-28.04748,56.09462s9.34928,2.67147,50.34108-14.9585C921.041,582.64786,943.23636,578.72784,947.27554,587.35622Z" transform="translate(-138.83939 -88.44342)"/>
            <path class="cls-15" d="M954.55439,567.79664s76.81331,167.36866,216.36613,208.35278c179.63716,52.75571,198.33572,39.39975,198.33572,39.39975l-42.739,58.09831s13.356,16.69521,11.35226,46.07825c-2.00334,29.38305-37.3964,47.41347-96.83027,50.75237-20.04285,1.1259-59.98109.37251-102.50694-9.683-71.07931-16.807-155.89093-54.418-192.65905-139.23557C887.10715,685.997,924.50356,591.16966,924.50356,591.16966s-31.38638,12.0204-42.739,11.35262a100.68781,100.68781,0,0,1-18.6982-2.67112s40.06788-8.01372,60.76942-19.36634c20.7019-11.35262,46.74569-36.72863,46.74569-36.72863Z" transform="translate(-138.83939 -88.44342)"/>
            <path class="cls-31" d="M1323.17837,903.03052a24.93861,24.93861,0,0,1-7.59967-6.80465c-.20966.29248-.41967.58461-.61746.90155-1.60113,2.5649-2.27346,7.354-4.65245,9.44677-8.24361,7.25124-20.6984,3.48183-30.4988,7.13453-11.48156,4.27925-21.623,6.0282-33.73882,3.37909-5.63263-1.23178-11.36869-2.02711-17.10891-2.798a40.32228,40.32228,0,0,0-11.27823,6.78893c-1.32752,1.15944-1.11122,4.37324-2.02116,2.65365-1.91668-3.623-1.33556-10.68484-8.98481-13.19522a284.78722,284.78722,0,0,0-37.4684-5.97508c-10.47517-.92847-19.40264-6.13967-27.34685-12.721q-2.05943-1.70614-4.08216-3.3749c-11.61086,1.10214-23.17276.17682-29.16849,13.3357-1.12694,2.47264-4.281,6.75783-4.47144,4.56788-1.33556-15.3593-7.72507-29.17967-14.56362-39.44762a208.45216,208.45216,0,0,1-22.33658-4.12235c-21.7621-5.78673-44.57077-25.88095-58.59451-31.891-4.13912-1.77411-18.99243-1.13428-20.7019-6.67815-2.2476-7.29-8.77514-34.73018-8.68114-44.07457-6.49642-4.81074-11.01611-3.18515-16.29056-9.19517-7.13837-8.13393-9.6477-16.10466-8.563-26.866,1.01862-10.10441-1.61162-9.67181-2.5261-20.03376-5.61828-3.64886-7.75618-2.76093-15.35931,0-1.91773.69643.093-53.85471.66359-58.53127-5.49006-8.79541-11.63986-17.23789-17.77393-25.54479-1.59974,37.7815,3.854,96.97111,36.47633,172.22519,36.76811,84.81791,117.573,122.76259,188.65272,139.56963,42.52549,10.05515,82.46373,8.47183,102.50693,7.34558,59.43352-3.3389,82.80658-16.36079,84.1421-37.39641C1331.72879,913.27576,1327.8528,905.702,1323.17837,903.03052Z" transform="translate(-138.83939 -88.44342)"/>
            <path class="cls-31" d="M941.45387,621.963c4.20237,12.0487,12.29191,19.27722,21.586,27.39018,6.38532,5.57357,13.64879,12.07317,16.46143,20.37272,4.17232,12.31079,4.21391,24.84172,11.57836,36.11432,7.56713,11.5822,17.24978,20.56526,30.01309,26.08223,9.55862,4.13178,19.36284,7.47523,28.01708,13.39964,16.92479,11.58534,25.592,32.738,44.0515,42.40459,12.52778,6.56074,26.29573,7.16772,39.80021,10.36929,11.51126,2.72913,20.90631,7.44273,30.43206,14.43224,9.50268,6.97273,19.78776,15.29535,31.804,17.13795,12.87722,1.97469,25.43471-3.7771,38.21409-2.10642,10.82466,1.41523,18.17859,7.46893,27.72181,12.18044,7.66532,3.78444,15.74683,5.00224,23.99257,6.8707,6.73127,1.5253,13.0198,3.64221,19.92265,4.38617,7.29387.78624,12.9866,2.25808,18.58009,5.4946l22.25446-17.56951,9.34932-12.0204s-15.35934,8.6815-194.99685-44.07457c-139.55251-40.98376-213.69464-207.01686-213.69464-207.01686l-9.05193,7.84493C937.61492,596.46857,937.24521,609.89687,941.45387,621.963Z" transform="translate(-138.83939 -88.44342)"/>
            <path class="cls-32" d="M1264.18441,960.388c-5.973,0-14.67125-.91833-22.18-5.29681-15.8569-9.2462-23.89574-26.79335-25.23623-35.68171a21.18938,21.18938,0,0,1-.2191-2.11866l-.91553.52032c-.31869,5.29891-.77262,10.72118-1.36174,16.31886l-.37149,3.52621-2.50618,2.50723c-9.15429,9.15709-27.45868,16.60611-40.80346,16.60611h-.00384c-.97249,0-1.92542-.037-2.84689-.11147-9.13647-.73558-22.71817-2.42966-35.12784-8.61616-12.53862-6.24974-25.37287-24.2253-23.74308-40.02839a42.32887,42.32887,0,0,1,2.09734-9.63966l-7.38158,4.58011-1.945-6.28888-.23273.224c-10.83265,10.43568-24.46117,16.18468-38.3675,16.18468h0c-12.84788,0-25.06393-4.80621-35.32563-13.8976-18.47456-16.36848-28.39937-44.19966-31.59814-65.10319l-7.19987,5.23707L986.394,823.09918q-.71286-4.58117-1.37121-9.19727a25.26537,25.26537,0,0,1-13.66591,3.71245h0a35.7378,35.7378,0,0,1-19.525-6.17845c-6.14736-4.035-11.61156-15.43339-16.24444-33.8786-2.53169-10.0796-6.23888-28.28615-2.63932-36.9659a69.49487,69.49487,0,0,1,13.21968-19.93312c-.38718.10867-13.58554,3.92771-13.58554,3.92771l-.39522-12.90693c-1.09934-35.89836.3407-74.01287,18.10485-109.59848a11.11458,11.11458,0,0,1,1.3443-2.3133l.14851.0919-.13278-.11356a10.1993,10.1993,0,0,1,8.38691-4.4351h6.6502l2.58237,6.13023a10.1517,10.1517,0,0,1,.7492,4.89042c.76912,1.72449,1.54557,3.54787,2.35383,5.44253,5.40339,12.67875,12.1298,28.45738,26.16924,39.68944,7.2425,5.79477,9.51983,15.9537,6.82215,30.78745,3.45489-2.22943,7.24247-3.7467,10.768-3.7467.33057,0,.65555.01293.97424.03529,5.07911.36866,8.63187,3.226,10.5416,4.76008l36.24672,29.12725c5.55435,4.4648,12.46628,10.01985,16.87412,17.876,2.80775,5.01133,4.23592,10.28613,5.49565,14.93928.411,1.51622.81982,3.03244,1.27965,4.52735a63.01114,63.01114,0,0,0,10.62334,20.3507l2.242,2.86716c6.25079-3.66039,13.82805-5.50927,22.63224-5.50927,22.68877,0,47.7136,12.55154,57.4193,17.94725,8.8059,4.89531,15.21918,27.7288,20.17494,41.14311,3.052-2.15989,8.67451-10.2683,15.526-12.52114,6.18824-2.0348,18.8876-8.09584,32.92291-8.09584,13.9318,0,25.81731,3.29557,35.32174,9.79482.63567.4354,1.32058.82188,1.9995,1.216,1.98168,1.1514,4.6151,9.243,6.88646,11.60946.45389-.53919.91969-7.60383,1.4753-8.06264,3.0618-2.52855,6.689-2.52855,8.43025-2.52855.35608,0,36.0923,5.4614,46.69012,21.60974l3.52376.65939-2.57887,5.1553c-4.49974,9.00228-10.97348,18.37567-18.35715,27.73927l.362,9.72039c.37565,10.05724.51857,20.24517.42073,30.28879.01572.1583.037.348.06045.56435,1.89991,17.48669-2.60787,27.91539-13.40139,30.9985a33.96,33.96,0,0,0-3.68974,1.5606c-3.63732,1.6843-7.76142,3.59365-12.402,3.59365h-.00209c-2.907-.0007-6.23891-5.66478-8.5281-7.10552-1.82338,3.05585-3.72119,9.85736-5.7441,11.18978-6.104,4.0273-15.58888,6.43354-25.369,6.43354Z" transform="translate(-138.83939 -88.44342)"/>
            <path class="cls-7" d="M992.28486,659.285c-19.44391-15.55533-26.48234-38.523-32.45427-51.14758-.35294-.74641-.69154-1.68221-.19429-2.3409-16.75706,33.06929-18.57136,68.52106-17.436,105.57642,19.53337-5.65605,26.07769-3.33192,46.07794-7.01187C991.363,696.47806,1002.30192,667.29839,992.28486,659.285ZM959.6363,605.79654c.57623-.59161.498-.65905,0,0Zm118.33483,146.91591c-1.81639-5.90554-2.91712-12.12069-5.939-17.50976-3.40952-6.08026-8.97646-10.601-14.41061-14.96758q-18.12285-14.5638-36.2464-29.1276c-1.48547-1.19334-3.09848-2.43979-4.99944-2.57817-3.82428-.2792-11.55669,6.29866-13.07187,9.82172-15.93587,37.05361-14.02374,78.13207-7.01187,123.20848,33.05567-24.04079,64.10833-31.05267,93.98758-45.2693A73.39232,73.39232,0,0,1,1077.97113,752.71245Zm97.62386,41.46739c-22.89149-12.727-58.43237-25.37636-75.12688-8.68149-2.00335,34.05785-4.3411,59.43386,8.85446,102.10787,25.64823-15.91246,61.04933-40.77305,85.875-57.94C1190.52308,813.63913,1182.29166,797.90278,1175.595,794.17984Zm107.25723,52.48385c3.46019-4.45781,6.92381-10.189,4.74994-15.39669-1.5064-3.60867-5.6204-5.04487-8.84853-7.25194-27.02956-18.4826-72.39251.19918-72.44,3.55451-.37914,26.92054,8.74719,51.25661,10.35113,78.13242C1243.16592,890.63377,1264.1589,870.74572,1282.85222,846.66369Zm18.28866-18.42634c-1.62661,1.3429-7.00209,14.90258-13.356,18.69821-1.45018.86661,3.13312,42.41891,4.67446,56.76309,17.69042-19.33489,39.4001-42.73935,49.41716-62.77312C1334.79059,830.12642,1302.583,827.04716,1301.14088,828.23735ZM942.20027,744.429c-3.73936,9.01486,6.97064,53.27743,15.12972,58.6333,12.91776,8.48022,25.06364,3.35637,24.93816-1.53684-1.00184-39.066-3.45628-56.161,3.00487-88.81691C958.914,712.34685,944.71729,738.35989,942.20027,744.429Zm143.24225,47.07975c-31.20992,13.41292-50.99873,21.89139-79.53228,40.32542,3.04258,20.83923,12.68259,45.87768,28.44584,59.84411,18.57,16.453,43.03673,14.43468,60.10165-2.00334C1091.43822,852.312,1084.20934,828.97292,1085.44252,791.50872Zm58.76608,86.81357c-8.78982,7.7104-23.44357,11.961-25.376,30.7186-1.11265,10.79946,8.5319,25.19326,18.24844,30.0365,9.71619,4.84325,20.64249,6.72463,31.464,7.59649,11.3617.91518,28.41963-6.2466,35.76522-13.59254,3.61461-34.35523,2.06768-61.82893-5.67631-95.49471C1181.15183,850.35832,1160.48449,864.04486,1144.2086,878.32229Zm82.80689,36.06085c-2.44364,2.65889,4.44768,22.96627,20.03411,32.05416,10.69637,6.23717,29.07065,4.37989,36.99351-.84634a10.024,10.024,0,0,0,3.31095-3.09534,10.99068,10.99068,0,0,0,1.071-5.23986c.79882-23.65222-5.56693-47.84223-10.65723-70.95387C1262.08882,885.41593,1243.7432,896.17939,1227.01549,914.38314Zm95.81515-31.14527c-6.12359,6.85427-25.81735,26.52078-27.032,29.14193-2.871,6.19418,1.561,17.4493,3.3389,24.0408,3.13693,7.61954,11.84988.43016,18.03078-1.33591,9.34858-2.67113,6.052-19.91356,6.07013-21.66531Q1323.3947,898.32671,1322.83064,883.23787Z" transform="translate(-138.83939 -88.44342)"/>
            <path class="cls-26" d="M1116.01855,782.06544a131.293,131.293,0,0,0-12.44916,44.20736c.77611-3.47484,1.6256-6.935,2.63128-10.35567,2.48348-8.44877,6.28818-25.20863,13.93114-34.2165C1118.726,781.76423,1117.345,781.87185,1116.01855,782.06544ZM1012.3071,853.19263c3.29347-6.5513,6.90074-13.14035,9.65716-19.91251-3.78094,4.90195-7.64334,9.73262-11.83627,14.28932C1010.80276,849.461,1011.52051,851.33955,1012.3071,853.19263Zm34.80216-80.60156c8.83458-5.25768,17.91825-10.00693,27.16794-14.40813-4.57662-9.73331-9.713-19.15038-17.11524-26.713-4.67408-4.7751-9.62565-9.25667-14.70515-13.60022-22.288,23.185-40.15206,51.9209-41.45411,82.84882q.64791,3.49038,1.39741,6.91927c.39767-.28479.82293-.543,1.23-.81909,3.8704-4.66712,8.86635-8.80659,12.94925-12.26361A227.19261,227.19261,0,0,1,1047.10926,772.59107Zm30.11931-7.991c-7.03493,3.34939-13.96363,6.914-20.70958,10.81588a252.76769,252.76769,0,0,0-23.11967,14.87219c14.71144-7.93859,30.63407-13.97238,46.44761-19.85835Q1078.53811,767.527,1077.22857,764.60006Zm22.60006,31.76448c.71845-2.2483,1.51133-4.47283,2.3409-6.68339a3.56968,3.56968,0,0,1-1.98168.55561Q1100.00493,793.333,1099.82863,796.36454ZM1070.08007,828.541a102.48428,102.48428,0,0,0-3.51257,24.2599,204.365,204.365,0,0,0,4.10068,43.86246c8.504-1.70457,16.52678-5.20527,21.4179-10.4322-8.16468-24.01983-9.3982-51.24368-9.5523-76.66267C1078.25139,815.67217,1074.00813,822.01521,1070.08007,828.541Zm63.99826-45.929a4.47066,4.47066,0,0,1-3.24875,2.972c-5.17451,1.41768-9.43454,15.77968-10.89765,19.92719a193.64165,193.64165,0,0,0-6.31613,21.20124,206.22819,206.22819,0,0,1,23.23988-43.64091C1135.94364,782.9055,1135.01413,782.75664,1134.07833,782.612ZM1059.513,849.69229c.02935-.42108.06779-.8446.09959-1.26672-7.01289,15.84293-10.82916,32.38893-8.00848,48.97057a54.62894,54.62894,0,0,0,11.83834.27991C1060.28739,881.85408,1058.40457,865.66032,1059.513,849.69229Zm192.9372,7.9274c6.65754-9.19622,13.01809-18.59407,19.33489-28.023-9.05854-6.99894-21.88545-8.86949-33.97749-6.62049-2.22977,18.03147-6.33605,35.75963-9.41842,53.71492-.68,3.96056-1.2465,7.93579-1.81538,11.91068.13034-.13978.261-.28095.38578-.4099,3.13623-3.23826,6.23681-6.51287,9.17211-9.93668Q1244.69909,868.26051,1252.4502,857.61969Zm24.03451-35.04432a43.72288,43.72288,0,0,0-8.89989-3.94414,38.78052,38.78052,0,0,1,8.32786,4.79887Q1276.19834,823.00239,1276.48471,822.57537Zm-40.20626,70.184c-.13418.13908-.26872.28479-.40325.42632a229.39315,229.39315,0,0,0,41.96045-40.24435,3.68512,3.68512,0,0,1-.19883-2.28779c.8404-3.94134,1.44354-7.94557,1.98447-11.94422q-.47541-.83866-.98717-1.63992c-7.70341,11.46933-15.50816,22.86528-23.894,33.85867A243.54869,243.54869,0,0,1,1236.27845,892.75942ZM1027.67062,696.16671q-3.14816-2.5296-6.29555-5.0592c-.47244-.37914-.96445-.7506-1.4673-1.10353-.07548.09714-.14362.19883-.2191.29632q3.88718,2.98719,7.86346,5.97264C1027.59232,696.238,1027.63041,696.20165,1027.67062,696.16671Zm-5.70884,5.127q-3.23248-2.53275-6.44962-5.07667a102.19974,102.19974,0,0,0-11.35538,24.0712A171.15472,171.15472,0,0,1,1021.96178,701.2937Zm7.75409,6.11521c-12.68679,11.56437-23.6704,24.50206-31.219,39.9924a167.98986,167.98986,0,0,0-.82817,21.68767c7.607-21.17714,21.26243-40.62874,37.29437-57.463Q1032.35065,709.50468,1029.71587,707.40891ZM948.4556,777.91654a60.90072,60.90072,0,0,0,20.99683,26.4757q1.38431.01048,2.77036-.00594a252.66484,252.66484,0,0,1,.12335-40.11855,160.10019,160.10019,0,0,1,2.574-16.58934,151.84165,151.84165,0,0,1,2.07044-22.63779c-3.46436,2.44189-6.9018,4.9292-10.24769,7.52834C957.76819,746.06505,952.62687,761.98,948.4556,777.91654Zm-3.08416-24.12991a4.01342,4.01342,0,0,1-.03494.61432,39.77157,39.77157,0,0,0-.30541,9.43978,178.51747,178.51747,0,0,1,6.3682-17.59048A45.82227,45.82227,0,0,0,945.37144,753.78663Zm36.79433-96.02447a84.6758,84.6758,0,0,0-6.28888-9.10606c-2.90036,5.82971-5.21645,12.03507-7.71075,17.7949-2.524,5.829-11.02764.796-8.5253-4.983,2.987-6.8976,5.75-14.182,9.409-20.87732-2.3381-2.59424-4.72373-5.15284-7.10726-7.71983a168.682,168.682,0,0,0-10.98047,26.7549c-4.56719,15.14055-5.62284,29.82963-5.01622,44.88981,14.02864-4.06923,28.17713-6.73442,41.37409-12.43589C987.21064,680.30911,988.339,668.22546,982.16577,657.76216ZM1026.117,871.05882c-.1583,2.41568-.19953,4.83975-.17507,7.26766.51368.78065,1.04308,1.55257,1.58122,2.31854.19394-2.47089.441-4.93654.78379-7.38927A4.38673,4.38673,0,0,1,1026.117,871.05882Zm237.739,48.42929c-2.75915,6.89831-5.64486,13.79067-9.04492,20.38636,13.06977,5.50123,27.94335,5.34049,33.66792-5.68785.16175-19.64414-4.33869-39.60836-8.71438-58.975C1275.97488,890.41223,1269.65944,904.9797,1263.85594,919.48811ZM1297.13,843.90556a163.72979,163.72979,0,0,0-1.42463,25.8198,248.30467,248.30467,0,0,0,4.30891-28.17468A20.74682,20.74682,0,0,0,1297.13,843.90556Zm-37.46385,66.62779c-5.70881,7.40045-11.88482,14.47942-17.86794,21.355a46.68906,46.68906,0,0,0,6.72778,4.81355,248.31211,248.31211,0,0,0,10.588-24.75471C1259.29609,911.4751,1259.48269,911.0051,1259.66615,910.53335Zm63.42622-15.64374c-4.42636,12.35062-8.88557,24.68482-13.69666,36.88727.39067-.11985.76737-.24216,1.10458-.35852a30.80527,30.80527,0,0,0,13.25008-8.60672,75.51586,75.51586,0,0,0-.51193-9.39226C1323.30238,907.24232,1323.2238,901.06562,1323.09237,894.88961Zm-92.23793,15.4823c1.71925,1.08222,3.51921,1.93276,5.323,2.90735a3.4439,3.4439,0,0,1,1.29956,1.1874c4.16184-7.17611,8.25728-14.38891,12.56972-21.46263C1243.61635,898.46788,1237.14786,903.99672,1230.85444,910.37191Zm-51.76924-93.82369q.15777-1.38956.29178-2.7805c-1.99775-2.762-4.21456-5.33246-6.57577-8.08919-6.639-7.75269-11.80025-16.00647-21.94485-19.17554-1.07872-.33686-2.34894-.70343-3.70127-1.07488-17.31547,24.03451-32.09292,55.00121-32.82675,84.81372,8.19225-10.65059,19.858-19.8538,28.62752-27.27277A329.66508,329.66508,0,0,1,1179.0852,816.54822Zm154.518,29.71955c.44029-9.28707-12.58086-10.28437-19.34083-9.51875a39.3432,39.3432,0,0,0-6.75084,1.34744c-1.37959,18.76949-5.23667,37.27655-10.25607,55.4478,14.33719-13.40243,25.74327-29.60843,36.48157-46.12892A3.66487,3.66487,0,0,1,1333.60319,846.26777Zm-111.71224-17.587c-.19779,12.21364-.70937,24.41575-1.38449,36.61227,2.52579-13.08794,5.22658-26.13884,7.01187-39.32183A49.32142,49.32142,0,0,0,1221.891,828.68079Zm-30.437,24.02158c-13.72916,27.08338-23.59212,55.97021-35.77986,83.8,1.34671.3421,2.71057.64856,4.11357.87674,9.814,1.59555,21.5472,1.4666,31.65057-1.92227a427.762,427.762,0,0,0,1.92821-65.02841C1193.06425,864.3611,1192.299,858.559,1191.454,852.70237Zm-24.54294,13.43319c-2.84759,2.481-5.69344,4.96485-8.50853,7.48326-8.11156,7.25648-16.22347,14.55734-23.86468,22.31282-2.81614,2.85877-5.65639,5.73641-8.18875,8.85482-1.10287,1.35827-2.12743,4.53119-2.75642,2.94194a3.90121,3.90121,0,0,1-.71216,4.39666,29.63049,29.63049,0,0,0,3.51922,4.81983c8.22652-12.11615,17.10688-23.78257,26.43551-35.095C1157.14454,876.624,1162.01609,871.42923,1166.91105,866.13556Zm-2.40974,17.03976a502.46349,502.46349,0,0,0-30.96252,40.8052c1.57388,1.38064,2.9353,2.502,3.75128,3.16733a49.25447,49.25447,0,0,0,9.19339,5.94188c8.07033-18.25861,15.0808-36.9977,22.77932-55.4139C1167.63054,879.5034,1166.03325,881.33342,1164.50131,883.17532Zm42.36195-42.248c.74955,8.43654,2.18156,16.69626,3.73832,24.9469.54547-9.78818.98367-19.5802,1.24575-29.37851a33.676,33.676,0,0,0-2.42616,2.90735A3.65873,3.65873,0,0,1,1206.86326,840.92728Zm-4.40784,16.44152c.67442,9.43,1.15281,18.88236,1.21466,28.33821.09714,14.92355-.59437,29.79049-1.94359,44.62843a31.531,31.531,0,0,0,3.06148-2.48068c2.34681-25.71042,1.67344-47.87018-2.51845-72.16467C1202.3443,856.24954,1202.41527,856.80934,1202.45542,857.3688Zm-65.99391,5.05954c3.47693-2.26192,6.97064-4.49869,10.51431-6.66,13.68933-8.34988,27.62082-16.2965,41.37759-24.52792-1.13181-2.29862-2.14906-4.63987-3.19634-7.00313a278.65871,278.65871,0,0,0-29.95818,21.31726C1148.68633,850.92826,1142.50753,856.5864,1136.46151,862.42834Z" transform="translate(-138.83939 -88.44342)"/>
            <path class="cls-3" d="M1034.35608,891.67825a48.63081,48.63081,0,0,0,6.37624,4.75379c-10.66317-35.16943.13733-73.85388,27.7267-97.58088-22.21008,9.72493-39.54023,18.11814-62.54878,32.983C1008.95282,852.67337,1018.59283,877.71182,1034.35608,891.67825Zm11.59234-180.82386q-12.28684-9.87309-24.57335-19.74688c-1.48547-1.19334-3.09848-2.43979-4.99944-2.57817-3.82428-.2792-11.55669,6.29866-13.07187,9.82172-15.93587,37.05361-14.02374,78.13207-7.01187,123.20848.08984-.06569.17927-.123.26942-.18834,1.10179-28.1013,4.10942-55.0428,19.78636-79.5211C1024.32121,729.39954,1034.48014,719.408,1045.94842,710.85439ZM942.20027,744.429c-3.53494,8.5218,5.84125,48.52119,13.7697,57.398-5.858-32.29284-1.55711-66.47265,23.61658-88.7624C956.87013,716.13233,944.53,738.81276,942.20027,744.429Zm17.44791-83.5187a115.51617,115.51617,0,0,1,18.058-17.34237c-9.0257-12.82936-13.71588-26.63715-17.87562-35.43046-.35294-.74641-.69154-1.68221-.19429-2.3409-15.84817,31.276-18.3257,64.68525-17.588,99.5643C945.224,689.47143,949.03148,673.96292,959.64818,660.91027ZM1243.2739,926.21659c-5.2444-11.78837-1.12027-22.19261,5.439-32.07024a236.35831,236.35831,0,0,0-21.69745,20.23679c-2.44364,2.65889,4.44768,22.96627,20.03411,32.05416,10.69637,6.23717,29.07065,4.37989,36.99351-.84634a10.024,10.024,0,0,0,3.31095-3.09534,10.59535,10.59535,0,0,0,1.06125-5.03055C1272.5881,944.92038,1251.06153,943.72076,1243.2739,926.21659Zm62.1609-5.50718a38.10231,38.10231,0,0,1,.87045-20.08933c-5.34993,5.60433-9.94053,10.53807-10.50662,11.75972-1.38448,2.98666-1.06439,7.1506-.16948,11.40014,3.15335-1.54523,6.95631,2.84759,4.04967,5.836-.62865.64647-1.30307,1.26463-1.99671,1.86881.54272,1.79962,1.0644,3.48427,1.45542,4.93585,2.63793,6.40768,9.21545,2.34928,14.918-.1562C1309.6148,933.00971,1306.71585,926.71384,1305.4348,920.70941Zm14.95853-90.39813c-9.494-2.15675-18.505-2.69069-19.25245-2.07393-1.62661,1.3429-7.00209,14.90258-13.356,18.69821-.95607.57133.71111,18.83273,2.3996,35.31968.45183-4.1206,1.0319-8.22338,1.8101-12.28632,1.98413-10.35776,4.69268-25.01294,12.66442-32.7817A23.945,23.945,0,0,1,1320.39333,830.31128ZM1147.3651,926.35811c-10.28228-16.9552-.71531-33.981,9.64246-48.36989a276.86375,276.86375,0,0,1,21.39766-25.93686c-11.87856,8.46729-23.91328,17.25013-34.19662,26.27093-8.78982,7.7104-23.44357,11.961-25.376,30.7186-1.11265,10.79946,8.5319,25.19326,18.24844,30.0365,9.71619,4.84325,20.64249,6.72463,31.464,7.59649,11.3617.91518,28.41963-6.2466,35.76522-13.59254.30821-2.929.5647-5.793.79707-8.63012C1187.59931,935.87757,1159.60533,946.54214,1147.3651,926.35811ZM1250.984,816.00589c-22.53789-.56819-44.6372,9.22243-44.6704,11.56368-.25125,17.8599,3.67577,34.58446,6.81968,51.66546.06465-20.71867,3.03978-42.016,18.621-53.49583A70.34623,70.34623,0,0,1,1250.984,816.00589Zm-150.51588-30.50754c-1.90236,32.341-4.07867,56.88365,7.00278,95.81375,1.417-37.66338,9.40868-74.17291,35.24948-100.86247C1126.391,776.01453,1110.21644,775.75,1100.46811,785.49835Z" transform="translate(-138.83939 -88.44342)"/>
            <path class="cls-26" d="M1191.46867,989.9021c-15.14859-6.43739-34.31924-5.40515-50.47422-7.91029-8.96734-1.39042-17.88855-3.11-26.80767-4.7744-6.53348-1.21885-21.73029-1.424-25.809-7.23936a.57047.57047,0,0,0-.97319,0c-6.51567,11.74574,29.867,16.68438,35.86621,18.05594,11.33759,2.5925,22.8492,4.48437,34.3395,6.25009,10.80749,1.66054,22.32085,4.27575,33.0847,1.53963C1193.19281,995.18878,1194.13769,991.03638,1191.46867,989.9021Zm28.06181,1.22269c-3.57618.47524-7.1548.88828-10.72153,1.44249-4.33306.67372-8.722.268-13.09353.38927a2.03592,2.03592,0,0,0-1.42747,3.44688c7.15689,6.71,19.22027,7.25544,27.12671,1.67732C1224.0704,996.20705,1223.59517,990.5842,1219.53048,991.12479Zm31.48877-2.11027c-3.797.23238-6.39127,1.70107-9.73891,3.30815-3.54891,1.70422-7.03912,3.24875-10.69707,4.74295a1.817,1.817,0,0,0,.48083,3.551c7.10552.54408,17.43009.015,22.37851-5.75074C1255.2342,992.77834,1254.24144,988.81743,1251.01925,989.01452Zm84.36608-22.39074c-15.65038,20.25286-46.02549,15.87927-67.76627,25.84076-1.47044.67372-.5937,2.71166.75794,2.80007,15.751,1.0284,32.44767-2.55476,47.77374-5.92756,10.854-2.38877,22.338-7.50947,26.76888-18.3278C1344.59344,966.92185,1338.09559,963.11644,1335.38533,966.62378Zm7.64156-13.81128a2.54642,2.54642,0,0,0-.38543,2.98736,2.67466,2.67466,0,0,0,1.91528,1.221c-.83935,1.24575-.52241,3.31584,1.2227,3.60517a5.3224,5.3224,0,0,0,4.47947-1.30446,4.48724,4.48724,0,0,0,1.026-5.70916C1349.60546,950.92657,1345.11131,950.15255,1343.02689,952.8125Zm-279.62148,9.29721a1.68478,1.68478,0,0,0-1.69059,1.69059c.21525,2.4321,2.80181,3.77675,4.55181,5.15215a1.62094,1.62094,0,0,0,2.29093-2.29093C1067.18216,964.91117,1065.83752,962.32531,1063.40541,962.10971Zm-14.60346-7.82677c-1.4341-.47768-3.70823-.56819-4.51477.97075a1.32647,1.32647,0,0,0,.47174,1.79891c.99175.49237,1.917.16459,2.9692.20792a3.84252,3.84252,0,0,1,2.67776,1.50889c1.00883,1.20591,3.0625-.38579,2.17527-1.67872A7.14479,7.14479,0,0,0,1048.802,954.28294Zm-9.41917-2.50234c-.4326-.20093-.80231.397-.37914.64856,1.288.76492,2.6215,1.42082,3.962,2.08895.43013.21421.80543-.41129.37876-.64891C1042.03612,953.14062,1040.74176,952.41134,1039.38278,951.7806Zm316.8212-12.12209a7.50863,7.50863,0,0,0-.88692-1.78739,2.44349,2.44349,0,0,0-4.17581,0,7.4823,7.4823,0,0,0-.88688,1.78739,5.09912,5.09912,0,0,0,.19324,2.51143,8.64047,8.64047,0,0,0,.69049,1.84225,8.79231,8.79231,0,0,1,.3477,1.57,1.81981,1.81981,0,0,0,3.48636,0,10.19282,10.19282,0,0,1,.34805-1.57,10.21943,10.21943,0,0,0,.69014-1.84225A5.09551,5.09551,0,0,0,1356.204,939.65851Z" transform="translate(-138.83939 -88.44342)"/>
            <path class="cls-26" d="M979.95346,832.28981a2.64217,2.64217,0,0,0,.20026-2.86716,2.37128,2.37128,0,0,0-.37428-.51368,1.83945,1.83945,0,0,1,.35468-.42631,1.18138,1.18138,0,0,0-1.14232-1.96176,4.53162,4.53162,0,0,0-1.931,1.08955c.04159-.05451.08142-.11112.12336-.16458,1.16646-1.48687,2.49783-2.85528,3.7149-4.30126,1.09409-1.29957-.32394-3.54123-1.92018-2.48872-2.20112,1.45088-4.50953,2.785-6.82212,4.049-.50774.27745-.1272.925.3617.85822.62127-.08491,1.23035-.19044,1.83383-.3089-1.22164,1.10807-2.80251,2.06938-2.75254,3.86131a1.65532,1.65532,0,0,0,1.64307,1.64342,4.02486,4.02486,0,0,0,3.00766-2.04422,3.60572,3.60572,0,0,0-.34388.88583,1.74078,1.74078,0,0,0,.75829,1.96525c-.01573.09365-.04124.17647-.05137.27885a1.49412,1.49412,0,0,0,1.50259,1.5026,2.84628,2.84628,0,0,0,.54828-.13524,3.40114,3.40114,0,0,0-.57868,2.80077,1.70815,1.70815,0,0,0,2.48313,1.01023,3.41389,3.41389,0,0,0,1.55923-2.42162A1.89689,1.89689,0,0,0,979.95346,832.28981Zm17.43742,22.15138a21.66436,21.66436,0,0,1-2.04178-6.67292c-.39347-2.42826-3.81693-1.98482-4.46864,0-.1894.57658-.35293,1.15455-.51158,1.73323-.06535-.61956-.116-1.24681-.13593-1.90166-.03809-1.23143-1.69444-2.147-2.60228-1.07767q-.531.6248-1.062,1.25064a1.11685,1.11685,0,0,0,.41373,1.83142,15.75071,15.75071,0,0,0,2.24131,8.14022,1.90843,1.90843,0,0,0,3.362-.23483,9.0107,9.0107,0,0,0,3.82917,4.7786c1.9635,1.04063,3.74778-.65,3.449-2.65121C999.58048,857.73641,998.27462,856.1164,997.39088,854.44119Zm111.54941-86.61195a1.54376,1.54376,0,0,0-1.68151-.10238,3.32374,3.32374,0,0,0,.29982-.33651,1.776,1.776,0,0,0,0-1.84854,2.939,2.939,0,0,0-2.58306-1.28245,1.896,1.896,0,0,0-1.47534.5633c-.01293-.01538-.01747-.035-.0311-.05032a2.00872,2.00872,0,0,0-.66568-.50739,2.16236,2.16236,0,0,0-.74571-.19778,4.29213,4.29213,0,0,1,.05311-.629,1.5743,1.5743,0,0,0-3.03349-.83622,7.05265,7.05265,0,0,0-.31449,1.917,13.15556,13.15556,0,0,1-1.02-1.50434,8.40374,8.40374,0,0,1-.73348-5.03543c.20408-1.64167-2.39052-1.88873-2.81264-.38054-.91728,3.2781-.542,10.91861,4.06609,11.21808a1.61259,1.61259,0,0,0,1.58052-1.32717l.01223.00943a2.3714,2.3714,0,0,0,1.01585.27816c.21627.02481.51574.1251.03247-.09505a1.26254,1.26254,0,0,0,.20547.05416,1.39238,1.39238,0,0,0,.94454.32883,2.11443,2.11443,0,0,0,1.121-.4071,1.86763,1.86763,0,0,0,1.80067,1.01512,3.58457,3.58457,0,0,0,1.56654-.37145,1.88061,1.88061,0,0,0-.463,1.16957c0,1.30971,1.67067,2.54672,2.86122,1.642.116-.08771.23133-.17542.347-.26347a1.62872,1.62872,0,0,0,0-2.75709C1109.17162,768.005,1109.0563,767.917,1108.94029,767.82924ZM935.787,727.99618a35.16124,35.16124,0,0,0-4.36171,6.096c-1.71086,2.93635,2.83466,5.58231,4.54063,2.65435a35.17551,35.17551,0,0,0,3.15652-6.80884A2.00768,2.00768,0,0,0,935.787,727.99618ZM929.29858,716.869c-.90854-17.30533-4.03845-35.95112-9.85351-52.28047-.57588-1.61616,4.76182,34.662,6.94233,52.28047C926.61069,718.67766,929.39887,718.78459,929.29858,716.869Zm169.227,201.95872a8.68576,8.68576,0,0,0-.38089-2.50758,3.14849,3.14849,0,0,0-1.36352-1.82233c.26313-.572.52206-1.14757.766-1.73952a2.71894,2.71894,0,0,0-1.56584-3.43605,9.12839,9.12839,0,0,0,1.92122-4.25793c.05106-.45392-.48572-.60907-.81279-.46615-3.219,1.4065-6.00688,4.92466-8.88627,7.007-1.63815,1.18495-3.36651,2.35-5.14377,3.42661-1.63328.86661-3.269,1.73288-4.89985,2.625-2.7176,1.23771-.7768,5.74515,2.024,4.80131a59.478,59.478,0,0,0,7.28024-3.07787c.10553,1.93,1.50434,3.76557,3.76312,2.83186q.29831-.12318.59685-.246a2.79764,2.79764,0,0,0,3.94134,1.53474,4.987,4.987,0,0,0,1.73811-1.40091,3.31155,3.31155,0,0,0,1.87615,3.06739,2.30526,2.30526,0,0,0,3.23966-1.17552,3.9257,3.9257,0,0,1,.27606-.64472,3.34591,3.34591,0,0,0,.03844-1.3097q.01049-.304-.007-.607a1.56512,1.56512,0,0,0-.01922-.23552.95336.95336,0,0,0,.09365-.2481C1103.81539,918.17352,1100.15155,916.77052,1098.52557,918.82767Zm8.94183,4.38128a1.46983,1.46983,0,0,0-2.286.29458,5.18142,5.18142,0,0,0-.42283,2.98492,7.28144,7.28144,0,0,0,.10553,1.67452,11.30259,11.30259,0,0,0,.63109,1.45262,1.74846,1.74846,0,0,0,3.17575-.41513,9.9507,9.9507,0,0,0,.25122-1.58681,7.99906,7.99906,0,0,0-.31695-1.64586A5.10094,5.10094,0,0,0,1107.4674,923.209ZM1223.498,944.82079c-.312-2.04527-2.8427-2.73716-4.50219-1.90549q.30663-.21805.61432-.43576a3.33345,3.33345,0,0,0-3.32493-3.92561,21.11512,21.11512,0,0,0,.87011-4.11187c.15131-1.45751-1.95337-1.83421-2.62465-.71111-3.83965,6.42272-6.82352,12.42575-12.96633,17.09777a2.59007,2.59007,0,0,0,2.61241,4.46934,37.00152,37.00152,0,0,0,10.79352-7.5507,6.29135,6.29135,0,0,0,.49516.52381,4.84468,4.84468,0,0,0,4.26771,1.13149,3.17558,3.17558,0,0,0,3.88718-3.77955Q1223.55952,945.22213,1223.498,944.82079Zm-21.18237-126.70288c.1244-.21107.2488-.41863.3732-.629a3.87038,3.87038,0,0,0,4.01367-.30541c1.206-.94,2.372-1.88278,3.51677-2.8392a2.746,2.746,0,0,0,2.68475-.55456,36.64248,36.64248,0,0,1,5.81888-3.442,2.09535,2.09535,0,0,0,.95991-2.35977,2.04907,2.04907,0,0,0-2.23851-1.46346,2.339,2.339,0,0,0-3.4703-2.54078,47.02321,47.02321,0,0,0-5.97018,4.02765c-.13594-2.83047-3.97733-3.23791-5.45791-1.13358-.4085.58077-.79882,1.17027-1.18565,1.76153-.47839-3.33262-.94874-6.66593-1.75385-9.93949a1.20279,1.20279,0,0,0-2.35173.31834c-.40252,5.91079.23972,11.82507.03984,17.73969C1197.20193,819.48562,1200.98428,820.37215,1202.31565,818.11791Zm91.58412,7.39066q.1473-.46021.29458-.92078a1.97243,1.97243,0,1,0-3.80331,0q.14676.46074.29423.92078A1.67992,1.67992,0,0,0,1293.89977,825.50857Zm4.63812,115.50577a2.84644,2.84644,0,0,0-1.95092-3.43675,2.814,2.814,0,0,0-3.4371,1.95128c-.5605,2.37759-.3169,6.41468,2.921,6.57717a2.61038,2.61038,0,0,0,2.59634-2.59635,5.54569,5.54569,0,0,0-.14747-1.69967C1298.55362,942.04868,1298.57948,940.797,1298.53789,941.01434ZM1347.281,829.01451l.38474,1.89711a1.27589,1.27589,0,0,0,2.445,0l.38473-1.89711C1351.041,826.32521,1346.73551,826.32521,1347.281,829.01451Zm-270.28269,82.6381q-1.042.35328-2.08441.70727a14.13065,14.13065,0,0,0-2.39192,1.31739,1.80164,1.80164,0,0,0-.64052,2.44119,1.82961,1.82961,0,0,0,2.44119.64017q1.03731-.4403,2.07462-.88024a12.15868,12.15868,0,0,0,1.84959-1.265C1079.68689,913.628,1078.83181,911.03026,1076.99829,911.65261Zm158.70778,34.86262a2.376,2.376,0,0,0-2.039-.463,2.09113,2.09113,0,0,0-1.4991,1.41349,2.34217,2.34217,0,0,0-.21666-.75584c.23168.46965-.23587-.55911-.29073-.67233a.95806.95806,0,0,0-.07828-.138,1.12008,1.12008,0,0,0,.022-.13,2.4209,2.4209,0,0,0-2.41813-2.41812,2.46281,2.46281,0,0,0-2.41813,2.41812c-.16878,1.98937,1.27441,4.17127,3.43955,3.97838a2.11531,2.11531,0,0,0,1.84539-1.3076,3.07569,3.07569,0,0,0,.239.99206,2.66934,2.66934,0,0,0,3.095,1.31285,2.34726,2.34726,0,0,0,1.36561-3.42172A1.72872,1.72872,0,0,0,1235.70607,946.51523Zm-9.94367-142.80929a1.899,1.899,0,0,0-2.04388-.64682,2.06082,2.06082,0,0,0-.90121,3.41369,2.16476,2.16476,0,0,0,3.72294-1.837A1.23645,1.23645,0,0,0,1225.7624,803.70594Zm5.51277,1.95092a3.456,3.456,0,0,0,1.65984-.88268,1.76745,1.76745,0,0,0,0-2.49047,3.45612,3.45612,0,0,0-1.65984-.88268,2.20727,2.20727,0,1,0,0,4.25583Zm-38.75643-6.17706a2.08174,2.08174,0,0,0-1.99216,2.61487,17.07431,17.07431,0,0,0,1.11331,2.75324c.79638,1.51412,2.78019.63353,2.93111-.79393a14.41951,14.41951,0,0,0,.01363-2.50828A2.09833,2.09833,0,0,0,1192.51874,799.4798ZM1006.64022,675.63115a7.55917,7.55917,0,0,0-1.24331,1.87859,34.15728,34.15728,0,0,0,.70625-5.17417c.11843-1.92891-2.67115-2.12949-3.22816-.43715-1.19925,3.64572-2.79063,7.59195-3.21345,11.40993-.19569,1.77132,2.14521,1.9062,2.97516.80581a15.5381,15.5381,0,0,0,2.36743-5.0571,4.05208,4.05208,0,0,0,.405,2.07043c.67233,1.40161,2.44678.74291,2.91748-.38124a22.0589,22.0589,0,0,1,1.042-3.01007C1010.3677,676.06655,1007.96076,674.12611,1006.64022,675.63115Zm-73.81683,50.809q-.13157-.173-.26345-.34665a1.62842,1.62842,0,0,0-2.75676,0q-.13209.1735-.26348.34665c-.90505,1.19089.33267,2.86156,1.642,2.86156S933.72844,727.631,932.82339,726.44013Zm-1.82093-4.555c.1195.49795.22294-.564.03319-.20442.57658-1.0927-.39763-2.86891-1.77655-2.31085a2.78065,2.78065,0,0,0-1.83352,3.50139C927.98227,725.19752,931.55877,724.2107,931.00246,721.88517ZM987.26515,844.146q.09225-.54461.18416-1.0892c.27046-1.60114-1.60359-3.05446-2.90385-1.69025q-.36639.38473-.73348.76912a2.06633,2.06633,0,1,0,3.45317,2.01033Z" transform="translate(-138.83939 -88.44342)"/>
          </g>
        </g>
        <g>
          <path class="cls-33" d="M1031.6937,1437.02643c-5.301-38.55585.5004-112.05469,2.29722-132.59235,18.28237-12.26431,30.15111-31.26653,30.3765-52.617.39068-36.99-34.27346-66.97618-77.42515-66.97618-43.151,0-78.44867,29.98617-78.839,66.97618-.24077,22.78352,12.8297,42.89765,32.97951,54.99633-7.809,28.18761-31.06388,116.02224-39.59092,191.72151-10.31583,91.57959-7.23272,179.05849-7.23272,179.05849l111.382,76.54422,20.12043-8.20137,59.71831-90.21258S1037.89525,1482.13255,1031.6937,1437.02643Z" transform="translate(-138.83939 -88.44342)"/>
          <ellipse class="cls-34" cx="855.1151" cy="1155.83135" rx="78.13207" ry="65.44424"/>
          <path class="cls-35" d="M951.88327,1289.01712s-30.71858,106.84733-40.06789,196.33238c-9.34892,89.48469-5.34224,174.9627-5.34224,174.9627l112.18993,74.79316,20.03376-8.01371,58.76609-88.14913s-49.41681-169.62011-56.095-213.695c-6.6778-44.07457,1.3356-134.89482,1.3356-134.89482s4.27365-27.0984-33.38976-32.05417C958.56107,1251.62071,951.88327,1289.01712,951.88327,1289.01712Z" transform="translate(-138.83939 -88.44342)"/>
          <path class="cls-34" d="M967.91035,1275.66116s-33.38973,104.17621-42.739,193.66125c-9.34892,89.48469-8.68114,178.96939-8.68114,178.96939l122.20663,78.79985L1107.48,1626.92212s-49.41716-169.62011-56.095-213.69467c-6.67815-44.07457-10.68484-130.88814-10.68484-130.88814s-8.01336-16.02708-36.06084-18.69855C976.59184,1260.96964,967.91035,1275.66116,967.91035,1275.66116Z" transform="translate(-138.83939 -88.44342)"/>
          <path class="cls-6" d="M1034.80581,1193.42106q-3.22882,1.77219-6.44962,3.57338,5.2935-2.19361,10.51991-4.26492Q1036.83763,1193.02568,1034.80581,1193.42106ZM923.75646,1269.388c9.21824-20.81162,24.77882-39.27849,41.70291-53.65307,16.488-14.00417,35.61007-26.21677,56.44371-32.57518a91.41508,91.41508,0,0,0-27.94894-4.32922c-43.151,0-78.13207,29.30058-78.13207,65.44424a56.38033,56.38033,0,0,0,6.91263,26.92543C923.07191,1270.59462,923.4081,1269.98869,923.75646,1269.388Zm8.72413,9.87449c-.55806,1.19159-1.08536,2.40345-1.5959,3.62614a71.92255,71.92255,0,0,0,10.97837,10.10861,58.69772,58.69772,0,0,1,16.22382-25.81106c8.29082-19.37053,33.60323-27.40766,52.653-30.84929a219.37841,219.37841,0,0,1,26.57144-3.24246c10.43569-2.83431,20.75015-5.84509,30.73608-9.58061a65.39259,65.39259,0,0,0-20.22526-26.61722c-26.34431,10.24454-55.40936,22.403-78.79251,39.80335C954.6704,1248.98383,942.0881,1262.91287,932.48059,1279.26249Zm114.55951-36.17337q-4.21849.43191-8.45544,1.27022c3.73063.557,7.42212,1.259,11.03882,2.08825a74.5171,74.5171,0,0,1,8.34743,1.888,3.89781,3.89781,0,0,1-.03739-.59265,3.71757,3.71757,0,0,1-.94908-4.51023C1053.67,1243.07619,1050.344,1242.98429,1047.0401,1243.08912Zm18.79812,8.07382c.01712.00769.03424.01363.05136.02132,3.72993,1.67556,1.0609,7.88023-2.77351,6.57786a154.50539,154.50539,0,0,0-17.70614-4.85407c-9.27237-1.2206-18.85126-1.02911-28.08242-1.69549a3.83958,3.83958,0,0,1-2.28534-.933c-10.89835.59719-21.45459,3.10163-30.62391,8.45506a3.31068,3.31068,0,0,1-2.87027.32637,81.77976,81.77976,0,0,0-17.11108,11.6175,27.5551,27.5551,0,0,0-1.07,3.26831,3.34032,3.34032,0,0,1-4.44208,2.37585,50.608,50.608,0,0,0-10.24944,18.99348,3.49939,3.49939,0,0,1-1.01862,1.66439,81.70554,81.70554,0,0,0,9.5457,5.03927c.189-.64576.369-1.29327.55977-1.939,1.3111-4.441,8.258-2.54882,6.94024,1.91354q-2.09508,7.09608-4.06435,14.21593c8.54627-3.09989,17.28507-5.70706,25.96276-8.06124,16.84893-4.571,33.91979-8.36106,51.09269-11.63671q2.93425-.87431,5.8685-1.7486c16.11339-11.1185,26.83318-27.5076,28.32672-46.03808-1.26012.4092-2.515.8156-3.78273,1.17063A3.31144,3.31144,0,0,1,1065.83822,1251.16294Zm-109.76132,81.9553c18.02413-7.80615,36.09125-15.49488,54.737-21.70584-20.34617,6.29342-39.93545,12.71194-53.8914,18.50951C956.64125,1330.98735,956.3547,1332.0521,956.0769,1333.11824Zm76.43239-28.3176c-5.05881,1.52636-10.17812,3.07682-15.28693,4.64057a3.18832,3.18832,0,0,1,2.039.64926q7.82886-2.97408,15.71538-5.79128C1034.15306,1304.46168,1033.33222,1304.63571,1032.50929,1304.80064ZM937.43775,1435.2352c34.01453-18.28971,69.29542-34.13753,104.71924-49.731q-.24268-2.25022-.47244-4.50184c-34.80741,16.14659-69.94993,31.66139-103.69713,49.72082Q937.70962,1432.97869,937.43775,1435.2352Zm6.25044-49.20679q-2.37811,17.986-4.64092,35.98711c33.251-17.49648,67.76558-32.688,101.90974-48.5771-1.80276-19.87372-2.79269-39.80336-3.08622-59.77318-29.41767,12.10078-57.99875,26.26394-86.865,39.767Q947.10974,1369.68176,943.68819,1386.02841Zm-13.77739,114.418q60.19356-31.11889,120.22461-62.54948c-2.335-11.89216-4.41832-23.83777-6.01946-35.89941-.40011-3.01427-.75688-6.03134-1.11611-9.04876-36.1206,15.91527-72.06229,32.15376-106.62823,51.0459Q932.98187,1472.20181,929.9108,1500.44637Zm-2.05575,19.59137c5.34364-2.97793,10.66562-5.96564,16.01205-8.79332q30.90661-16.34751,62.3374-31.67362,23.81571-11.64266,47.80376-22.92259-1.22759-5.69763-2.39891-11.40573-61.21356,32.0456-122.59731,63.76343Q928.43022,1514.52218,927.85505,1520.03774Zm143.663,15.13112q-19.38189,10.641-38.79173,21.23095-38.22179,20.80131-76.58789,41.336c-11.21808,5.9964-22.30548,12.57985-33.65181,18.58464-.05975,6.07746-.17052,12.156-.38438,18.23484.75165,3.82638,1.57633,7.64366,2.53274,11.44418a3.50686,3.50686,0,0,1-.101,2.15849q17.70143,10.0859,35.49929,20.01909c44.4607-21.78237,86.46623-48.01241,128.29354-74.58176C1081.3946,1574.635,1076.1495,1554.91014,1071.518,1535.16886Zm23.02358,54.47531q.94872-.60331,1.89816-1.20662c-4.69648-16.5439-10.41682-36.90859-16.20632-58.0389-.73.40151-1.46244.79882-2.19242,1.2C1082.59493,1551.19629,1087.73415,1570.79745,1094.5416,1589.64417ZM976.77845,1687.166l28.50353,18.37951c1.1975-.56259,2.39328-1.15909,3.58662-1.77341-10.57193-5.35517-20.92309-11.15623-31.25531-16.99363C977.33406,1686.906,977.05768,1687.03879,976.77845,1687.166Zm122.41245-67.70372c-36.76777,22.52807-73.74589,44.6445-112.668,63.15575q15.52725,8.31528,31.25569,16.23745c4.42846-2.55581,8.6808-5.09275,12.56029-7.10028q26.272-13.59882,51.99672-28.21521l22.62208-32.94489Q1101.92807,1625.105,1099.1909,1619.46227Zm-.69818-23.80528q-.68718.43714-1.375.8729,2.45517,6.33134,5.20492,12.5208C1101.1883,1605.09852,1099.90516,1600.61345,1098.49272,1595.657Zm-2.30281,17.33888q-2.78172-6.194-5.26991-12.53163c-40.21255,25.53815-80.60122,50.74364-123.2008,71.94209q5.49792,3.02651,11.01122,6.0254C1019.43358,1659.5298,1057.92654,1636.4884,1096.18991,1612.99587Zm-17.92175-89.789q-.99329-3.64659-1.98308-7.3054-.7962.45654-1.591.91553.82345,3.7163,1.66229,7.43994Q1077.31244,1523.73116,1078.26816,1523.20682ZM962.95738,1585.924q36.61157-19.63873,73.08825-39.5266,16.91676-9.22627,33.77865-18.55284-.83026-3.64344-1.64237-7.28094c-47.982,27.60509-95.71521,55.6669-145.71873,79.38831.037,2.85493.08457,5.70986.08771,8.56583C936.25315,1601.23965,949.60914,1593.08441,962.95738,1585.924Zm111.38971-77.20746c-3.1523-11.72372-6.22-23.34436-9.05222-34.372q1.735,7.77067,3.47585,15.55184c1.44179,6.46535,2.86122,12.9929,4.29951,19.55434Q1073.70923,1509.08436,1074.34709,1508.71657ZM922.32833,1584.419c-.04543.72474-.11182,1.43725-.16217,2.15849.05766,1.82548.11325,3.65095.15655,5.47608,49.42589-23.6959,96.69015-51.525,144.227-78.85332-1.58227-7.17785-3.13868-14.32111-4.71955-21.39029-2.09035-9.34578-4.20548-18.672-6.26019-28.0059-17.62825,8.34918-35.22152,16.77069-52.70958,25.40991-22.05566,10.89555-43.997,22.03536-65.63577,33.74021-3.40317,1.8412-6.80465,3.7149-10.212,5.58581C925.16156,1547.1358,923.49718,1565.73721,922.32833,1584.419Z" transform="translate(-138.83939 -88.44342)"/>
          <path class="cls-16" d="M1053.45583,1680.2275c-7.04266,6.26057-14.65137,12.47362-24.23931,13.91052-9.43489,1.41419-15.81218-4.77475-23.54215-8.527-19.95057-9.68369-38.83433-23.41181-52.27244-41.2462-14.17749-18.81526-19.50541-41.10432-21.23409-64.27606-.69643-9.33425-1.13289-18.70135-1.36771-28.07858-2.993,52.92379-2.68335,94.52117-2.68335,94.52117l107.29566,69.185,50.42285-70.35773C1079.927,1651.30327,1059.69855,1674.678,1053.45583,1680.2275Z" transform="translate(-138.83939 -88.44342)"/>
          <path class="cls-3" d="M910.61016,1600.59388c6.46745-41.17316,5.10987-83.18568,9.62674-124.59366,7.38018-67.65376,15.12657-142.137,52.57959-200.81989,2.033-3.18515,6.356-1.67452,6.70611,1.81639,4.19853,41.8364-17.02893,81.8634-15.54835,123.23853,10.97138-40.47707,19.72871-81.55064,32.52-121.52418a3.6273,3.6273,0,0,1,6.94058,0c7.87709,24.44021,9.69173,50.347,13.58139,75.59619,3.3207,21.55278,7.29523,44.71439,18.61954,63.754a526.13585,526.13585,0,0,0-9.66307-71.93335c-4.89811-23.1078-12.55959-46.41477-6.77285-70.088a3.68418,3.68418,0,0,1,3.46994-2.64177c12.72277-1.34325,19.91356,7.58356,24.08308,19.06128,15.55432-11.95995,25.33373-29.10454,25.33373-48.18469a55.47454,55.47454,0,0,0-.46371-7.08874c-9.19133,3.22673-17.64429,10.20121-27.436,10.27529-20.18158.15236-28.913-3.51292-50.2324-3.18655-16.19444.24811-44.50927,14.969-51.56237-.41024-4.47526-9.75673-4.70871-23.40726,1.13987-32.701,12.56553-19.96667,41.314-22.77408,62.67073-22.17653,11.21948.31379,19.03087,13.30109,31.15855,15.88765-13.28362-8.74439-20.52648-21.36933-38.73232-21.36933-43.151,0-82.80688,24.62577-82.80688,60.76943,0,22.2625,13.28292,41.91642,33.56025,53.73869-7.51122,27.54254-29.83871,113.36789-37.56694,187.336-5.84086,55.90731-6.46849,110.25018-6.1173,143.16083C907.3733,1619.01987,909.18689,1609.65627,910.61016,1600.59388Z" transform="translate(-138.83939 -88.44342)"/>
        </g>
        <g>
          <path class="cls-22" d="M700.79184,1001.19671c97.49841,82.80688,196.332,138.23407,301.84414,178.30195,105.51178,40.06753,196.332-2.00369,196.332-2.00369l-10.68484,43.40678c-15.81218-3.09709-16.05714,45.95526-36.06085,78.80021-20.84129,34.22069-96.16284,81.471-96.16284,81.471s-1.33557-124.21-5.34225-132.22369c-4.00668-8.01337-46.74565-46.74569-46.74565-46.74569l-57.43053,16.02708L893.11718,1353.1258s-166.949-86.81357-251.09142-172.29158S508.4665,945.76952,508.4665,945.76952L548.534,830.24069l14.69152-5.34224S603.29344,918.39017,700.79184,1001.19671Z" transform="translate(-138.83939 -88.44342)"/>
          <path class="cls-7" d="M700.79184,979.1596c97.49841,82.80654,196.332,153.593,301.84414,193.66091,105.51178,40.06788,196.332-17.36265,196.332-17.36265l5.34224,42.739s-16.02708,41.40344-40.06753,73.4576c-24.0408,32.05417-96.16281,80.13542-96.16281,80.13542s4.00665-116.19661,0-124.21c-4.00672-8.01372-58.76612-48.08125-58.76612-48.08125l-68.11536,13.35561L877.0901,1317.0646s-154.92893-88.14913-239.071-173.62714c-84.14244-85.478-138.90185-243.07806-138.90185-243.07806L548.534,808.20358l14.69152-5.34224S603.29344,896.35271,700.79184,979.1596Z" transform="translate(-138.83939 -88.44342)"/>
          <path class="cls-8" d="M700.79184,979.1596c97.49841,82.80654,196.332,153.593,301.84414,193.66091,105.51178,40.06788,196.332-17.36265,196.332-17.36265s-33.45927,44.005-65.44424,57.26349c-24.66735,10.22533-41.59354,15.20381-52.75568,15.86006-.87888.05171-6.01038,117.53252-6.01038,117.53252l-6.01005,5.676s.666-124.21382.33406-124.87776c-4.007-8.01372-59.76793-47.41347-59.76793-47.41347l-68.11536,13.35561-65.44389,121.53921-8.6815-5.67631s53.12577-121.07166,51.4205-121.87292c-34.256-16.09488-128.61922-69.89507-229.7221-174.29492-122.87441-126.88145-125.54589-209.688-125.54589-209.688S603.29344,896.35271,700.79184,979.1596Z" transform="translate(-138.83939 -88.44342)"/>
          <polygon class="cls-26" points="736.915 1225.95 779.654 1098.401 724.895 1064.343 795.681 1091.055 863.797 1084.377 945.268 1132.458 1005.369 1119.102 947.939 1140.472 929.908 1263.346 930.242 1138.469 859.79 1095.062 795.681 1105.747 736.915 1225.95"/>
        </g>
      </g>
    </g>
  </g>
</svg>
